<svg width="110" height="31" viewBox="0 0 110 31" fill="none" xmlns="http://www.w3.org/2000/svg">
<path d="M60.9113 8.03123L63.042 8.68684C62.7142 9.91611 62.1406 10.8176 61.403 11.3912C60.6655 11.9649 59.6821 12.2927 58.4528 12.2927C56.9777 12.2927 55.7484 11.801 54.8469 10.8176C53.8635 9.83415 53.4538 8.44098 53.4538 6.72001C53.4538 4.83513 53.9455 3.44196 54.8469 2.37659C55.8303 1.39318 57.0596 0.819519 58.6167 0.819519C60.0099 0.819519 61.0752 1.22928 61.8947 2.04879C62.3864 2.54049 62.7962 3.1961 63.042 4.09757L60.8294 4.58928C60.6655 4.01562 60.4196 3.52391 60.0098 3.1961C59.6001 2.8683 59.1084 2.7044 58.5347 2.7044C57.7152 2.7044 57.0596 3.0322 56.5679 3.60586C56.0762 4.17952 55.8303 5.16293 55.8303 6.47415C55.8303 7.86732 56.0762 8.85074 56.5679 9.50635C57.0596 10.08 57.7152 10.4078 58.5347 10.4078C59.1084 10.4078 59.6821 10.2439 60.0918 9.83415C60.4196 9.4244 60.7474 8.85074 60.9113 8.03123ZM65.0089 12.1288V1.06537H69.762C70.9094 1.06537 71.8108 1.14732 72.3025 1.39318C72.8762 1.55708 73.2859 1.96684 73.6138 2.45854C73.9416 2.95025 74.1055 3.52391 74.1055 4.17952C74.1055 4.99903 73.8596 5.73659 73.3679 6.2283C72.8762 6.80196 72.1386 7.12976 71.1552 7.29367C71.6469 7.53952 72.0567 7.86732 72.3845 8.19513C72.7123 8.52293 73.122 9.09659 73.6957 9.99806L75.0069 12.1288H72.3025L70.6635 9.67025C70.0899 8.85074 69.6801 8.27708 69.5162 8.03123C69.2703 7.78537 69.1064 7.62147 68.8606 7.53952C68.6147 7.45757 68.205 7.37562 67.7133 7.37562H67.2216V12.0468H65.0089V12.1288ZM67.2216 5.73659H68.8606C69.9259 5.73659 70.5816 5.65464 70.9094 5.57269C71.1552 5.49074 71.4011 5.32684 71.565 5.08098C71.7289 4.83513 71.8108 4.58928 71.8108 4.26147C71.8108 3.85171 71.7289 3.60586 71.483 3.36001C71.3191 3.11415 70.9913 2.95025 70.6635 2.95025C70.4996 2.95025 69.9259 2.95025 69.0245 2.95025H67.3035C67.2215 2.95025 67.2216 5.73659 67.2216 5.73659ZM76.1542 12.1288V1.06537H84.3494V2.95025H78.3669V5.40879H83.9396V7.29367H78.3669V10.3259H84.5133V12.2107H76.1542V12.1288ZM86.4801 1.06537H90.5777C91.4791 1.06537 92.2167 1.14732 92.7084 1.31123C93.364 1.47513 93.9376 1.80293 94.3474 2.29464C94.8391 2.78635 95.1669 3.36001 95.4128 4.09757C95.6586 4.83513 95.7406 5.65464 95.7406 6.72001C95.7406 7.62147 95.6586 8.44098 95.4128 9.09659C95.1669 9.91611 94.7572 10.5717 94.2655 11.0634C93.8557 11.4732 93.364 11.719 92.7084 11.9649C92.2167 12.1288 91.5611 12.2107 90.7416 12.2107H86.562V1.06537H86.4801ZM88.7747 2.95025V10.3259H90.4138C91.0694 10.3259 91.4791 10.3259 91.725 10.2439C92.0528 10.162 92.3806 9.99806 92.6264 9.7522C92.8723 9.50635 93.0362 9.17854 93.2001 8.68684C93.364 8.19513 93.4459 7.53952 93.4459 6.63806C93.4459 5.81854 93.364 5.16293 93.2001 4.67123C93.0362 4.17952 92.8723 3.85171 92.5445 3.60586C92.2986 3.36001 91.9708 3.1961 91.4791 3.11415C91.1513 3.0322 90.5777 3.0322 89.6762 3.0322C89.7581 2.95025 88.7747 2.95025 88.7747 2.95025ZM97.6255 12.1288V1.06537H99.8381V12.1288H97.6255ZM104.509 12.1288V2.95025H101.231V1.06537H110V2.95025H106.722V12.2107H104.509V12.1288ZM0.349365 30.8137V19.7503H3.70937L5.67619 27.2898L7.64302 19.7503H11.003V30.8137H8.95424V22.0449L6.74156 30.8137H4.61083L2.4801 22.1268V30.8956C2.4801 30.8137 0.349365 30.8137 0.349365 30.8137ZM23.2957 30.8137H20.9191L19.9357 28.2732H15.5103L14.6089 30.8137H12.2323L16.4938 19.7503H18.8703L23.2957 30.8137ZM19.1981 26.4703L17.6411 22.3727L16.166 26.4703H19.1981ZM24.525 30.8137V19.7503H26.7377V24.6673L31.245 19.7503H34.2772L30.0977 24.0937L34.523 30.8956H31.6547L28.6225 25.6507L26.8196 27.5356V30.8956H24.525V30.8137ZM35.6703 30.8137V19.7503H43.8655V21.6351H37.883V24.0937H43.4557V25.9785H37.883V29.0107H44.0294V30.8956H35.6703V30.8137ZM45.9962 30.8137V19.7503H50.7494C51.8967 19.7503 52.7981 19.8322 53.3718 20.0781C53.9455 20.242 54.3552 20.6517 54.683 21.1434C55.0108 21.6351 55.1747 22.2088 55.1747 22.8644C55.1747 23.6839 54.9289 24.4215 54.4372 24.9132C53.9455 25.4868 53.2079 25.8146 52.2245 25.9785C52.7162 26.2244 53.1259 26.5522 53.4538 26.88C53.7816 27.2078 54.1913 27.7815 54.683 28.6829L55.9942 30.8137H53.2899L51.6508 28.3551C51.0772 27.5356 50.6674 26.962 50.5035 26.7161C50.2577 26.4703 50.0938 26.3064 49.8479 26.2244C49.6021 26.1424 49.1923 26.0605 48.7006 26.0605H48.2089V30.7317H45.9962V30.8137ZM48.2089 24.4215H49.8479C50.9133 24.4215 51.5689 24.3395 51.8967 24.2576C52.1425 24.1756 52.3884 24.0117 52.5523 23.7659C52.7162 23.52 52.7981 23.2742 52.7981 22.9464C52.7981 22.5366 52.7162 22.2907 52.4703 22.0449C52.3064 21.799 51.9786 21.6351 51.6508 21.6351C51.4869 21.6351 50.9133 21.6351 50.0118 21.6351H48.2908V24.4215H48.2089Z" fill="#005898"/>
</svg>
