<svg width="168" height="32" viewBox="0 0 168 32" fill="none" xmlns="http://www.w3.org/2000/svg">
<g clip-path="url(#clip0_2_30)">
<path d="M58.3492 1.72097H62.201C63.1024 1.72097 63.758 1.80293 64.1678 1.88488C64.7414 2.04878 65.3151 2.37658 65.7249 2.86829C66.1346 3.36 66.4624 3.93366 66.7083 4.58927C66.9541 5.24488 67.0361 6.06439 67.0361 7.0478C67.0361 7.86732 66.9541 8.68683 66.7083 9.26049C66.4624 9.99805 66.0527 10.6537 65.561 11.1454C65.2332 11.4732 64.7414 11.801 64.0858 11.9649C63.5941 12.1288 63.0205 12.2107 62.201 12.2107H58.2673C58.3492 12.1288 58.3492 1.72097 58.3492 1.72097ZM60.48 3.44195V10.3259H62.0371C62.6107 10.3259 63.0205 10.3259 63.2663 10.2439C63.5941 10.1619 63.9219 9.99805 64.0858 9.83414C64.3317 9.58829 64.4956 9.26049 64.6595 8.85073C64.8234 8.35902 64.9053 7.78536 64.9053 6.96585C64.9053 6.14634 64.8234 5.57268 64.6595 5.08097C64.4956 4.67122 64.3317 4.34341 64.0858 4.09756C63.84 3.85171 63.5122 3.6878 63.1024 3.60585C62.7746 3.5239 62.201 3.5239 61.3814 3.5239C61.3814 3.44195 60.48 3.44195 60.48 3.44195ZM68.839 12.1288V1.72097H73.2644C74.4117 1.72097 75.2312 1.80293 75.7229 1.96683C76.2146 2.13073 76.6244 2.45853 76.9522 2.95024C77.28 3.44195 77.4439 4.01561 77.4439 4.58927C77.4439 5.40878 77.198 5.98244 76.7883 6.5561C76.2966 7.0478 75.641 7.37561 74.7395 7.53951C75.2312 7.78536 75.559 8.11317 75.8868 8.44098C76.2146 8.76878 76.5424 9.34244 77.1161 10.1619L78.4273 12.2107H75.8868L74.2478 9.83414C73.6741 9.01463 73.3463 8.52293 73.1005 8.27707C72.9366 8.03122 72.6907 7.94927 72.4449 7.86732C72.199 7.78536 71.8712 7.78536 71.3795 7.78536H70.9697V12.1288H68.839ZM70.9697 6.14634H72.5268C73.5102 6.14634 74.1658 6.06439 74.4117 5.98244C74.6575 5.90049 74.8214 5.73658 74.9853 5.57268C75.1492 5.32683 75.2312 5.08097 75.2312 4.75317C75.2312 4.42536 75.1492 4.09756 74.9853 3.93366C74.8214 3.6878 74.4936 3.60585 74.1658 3.5239C74.0019 3.5239 73.5102 3.5239 72.6088 3.5239H70.9697C70.9697 3.44195 70.9697 6.14634 70.9697 6.14634ZM79.4107 12.1288V1.72097H87.1141V3.5239H81.5414V5.81854H86.7863V7.62146H81.5414V10.4898H87.36V12.2927C87.278 12.1288 79.4107 12.1288 79.4107 12.1288ZM98.5053 12.1288H96.2107L95.3093 9.75219H91.1297L90.2283 12.1288H88.0156L92.0312 1.72097H94.2439L98.5053 12.1288ZM94.6536 8.03122L93.1785 4.09756L91.7853 8.03122H94.6536ZM99.5707 12.1288V1.72097H102.767L104.652 8.85073L106.537 1.72097H109.733V12.1288H107.766V3.93366L105.717 12.1288H103.668L101.619 3.93366V12.1288C101.538 12.1288 99.5707 12.1288 99.5707 12.1288ZM115.141 30.8137V28.6829H117.272V30.8137H115.141ZM126.451 25.159L124.402 25.5688C124.32 25.159 124.156 24.8312 123.91 24.6673C123.664 24.4215 123.337 24.3395 122.927 24.3395C122.435 24.3395 121.943 24.5034 121.698 24.9132C121.37 25.241 121.206 25.8966 121.206 26.7161C121.206 27.6995 121.37 28.3551 121.698 28.7649C122.025 29.1746 122.435 29.3385 123.009 29.3385C123.419 29.3385 123.746 29.2566 123.992 29.0107C124.238 28.7649 124.402 28.3551 124.566 27.7815L126.697 28.1093C126.451 29.0927 126.041 29.8302 125.467 30.322C124.894 30.8137 123.992 31.0595 123.009 31.0595C121.861 31.0595 120.878 30.6498 120.222 29.9122C119.485 29.1746 119.157 28.1093 119.157 26.798C119.157 25.4868 119.485 24.4215 120.222 23.6839C120.96 22.9463 121.861 22.5366 123.091 22.5366C124.074 22.5366 124.812 22.7824 125.385 23.1922C125.795 23.6839 126.205 24.3395 126.451 25.159ZM127.598 26.7161C127.598 25.9785 127.762 25.3229 128.09 24.6673C128.418 24.0117 128.909 23.52 129.565 23.1922C130.22 22.8644 130.876 22.7005 131.696 22.7005C132.925 22.7005 133.908 23.1102 134.646 23.8478C135.383 24.6673 135.793 25.6507 135.793 26.88C135.793 28.1093 135.383 29.0927 134.646 29.9122C133.826 30.7317 132.843 31.1415 131.696 31.1415C130.958 31.1415 130.22 30.9776 129.565 30.6498C128.909 30.322 128.418 29.8302 128.008 29.1746C127.762 28.4371 127.598 27.6176 127.598 26.7161ZM129.729 26.798C129.729 27.6176 129.893 28.1912 130.302 28.601C130.712 29.0107 131.122 29.2566 131.696 29.2566C132.269 29.2566 132.679 29.0107 133.089 28.601C133.499 28.1912 133.662 27.5356 133.662 26.7161C133.662 25.8966 133.499 25.3229 133.089 24.9132C132.679 24.5034 132.269 24.2576 131.696 24.2576C131.122 24.2576 130.712 24.5034 130.302 24.9132C129.893 25.4049 129.729 26.0605 129.729 26.798ZM137.35 22.7824H139.317V23.8478C140.055 23.0283 140.874 22.6185 141.776 22.6185C142.267 22.6185 142.759 22.7005 143.087 22.9463C143.497 23.1922 143.742 23.438 143.988 23.9298C144.316 23.52 144.726 23.1922 145.136 22.9463C145.545 22.7005 145.955 22.6185 146.447 22.6185C147.02 22.6185 147.512 22.7005 147.922 22.9463C148.332 23.1922 148.659 23.52 148.823 24.0117C148.987 24.3395 149.069 24.9132 149.069 25.6507V30.8137H146.939V26.2244C146.939 25.4049 146.857 24.9132 146.693 24.6673C146.529 24.3395 146.201 24.1756 145.791 24.1756C145.463 24.1756 145.218 24.2576 144.972 24.4215C144.726 24.5854 144.48 24.8312 144.398 25.241C144.316 25.5688 144.234 26.1424 144.234 26.88V30.7317H142.103V26.3063C142.103 25.4868 142.103 24.9951 142.021 24.8312C141.939 24.5854 141.858 24.4215 141.694 24.3395C141.53 24.2576 141.284 24.1756 141.038 24.1756C140.71 24.1756 140.382 24.2576 140.137 24.4215C139.891 24.5854 139.727 24.8312 139.563 25.159C139.481 25.4868 139.399 26.0605 139.399 26.798V30.7317H137.268L137.35 22.7824Z" fill="#009EE8"/>
<path d="M118.911 8.03122L121.042 8.68683C120.714 9.9161 120.14 10.8176 119.403 11.3912C118.665 11.9649 117.682 12.2927 116.453 12.2927C114.978 12.2927 113.748 11.801 112.847 10.8176C111.863 9.83415 111.454 8.44098 111.454 6.72C111.454 4.83512 111.945 3.44195 112.847 2.37658C113.83 1.39317 115.06 0.819511 116.617 0.819511C118.01 0.819511 119.075 1.22927 119.895 2.04878C120.386 2.54049 120.796 3.1961 121.042 4.09756L118.829 4.58927C118.665 4.01561 118.42 3.5239 118.01 3.1961C117.6 2.86829 117.108 2.70439 116.535 2.70439C115.715 2.70439 115.06 3.03219 114.568 3.60585C114.076 4.17951 113.83 5.16293 113.83 6.47415C113.83 7.86732 114.076 8.85073 114.568 9.50634C115.06 10.08 115.715 10.4078 116.535 10.4078C117.108 10.4078 117.682 10.2439 118.092 9.83415C118.42 9.42439 118.747 8.85073 118.911 8.03122ZM123.009 12.1288V1.06537H127.762C128.909 1.06537 129.811 1.14732 130.302 1.39317C130.876 1.55707 131.286 1.96683 131.614 2.45854C131.941 2.95024 132.105 3.5239 132.105 4.17951C132.105 4.99902 131.86 5.73659 131.368 6.22829C130.876 6.80195 130.139 7.12976 129.155 7.29366C129.647 7.53951 130.057 7.86732 130.384 8.19512C130.712 8.52293 131.122 9.09659 131.696 9.99805L133.007 12.1288H130.302L128.663 9.67024C128.09 8.85073 127.68 8.27707 127.516 8.03122C127.27 7.78537 127.106 7.62146 126.86 7.53951C126.615 7.45756 126.205 7.37561 125.713 7.37561H125.221V12.0468H123.009V12.1288ZM125.221 5.73659H126.86C127.926 5.73659 128.581 5.65463 128.909 5.57268C129.155 5.49073 129.401 5.32683 129.565 5.08098C129.729 4.83512 129.811 4.58927 129.811 4.26146C129.811 3.85171 129.729 3.60585 129.483 3.36C129.319 3.11415 128.991 2.95024 128.663 2.95024C128.5 2.95024 127.926 2.95024 127.024 2.95024H125.303C125.221 2.95024 125.221 5.73659 125.221 5.73659ZM134.154 12.1288V1.06537H142.349V2.95024H136.367V5.40878H141.94V7.29366H136.367V10.3259H142.513V12.2107H134.154V12.1288ZM144.48 1.06537H148.578C149.479 1.06537 150.217 1.14732 150.708 1.31122C151.364 1.47512 151.938 1.80293 152.347 2.29463C152.839 2.78634 153.167 3.36 153.413 4.09756C153.659 4.83512 153.74 5.65463 153.74 6.72C153.74 7.62146 153.659 8.44098 153.413 9.09659C153.167 9.9161 152.757 10.5717 152.265 11.0634C151.856 11.4732 151.364 11.719 150.708 11.9649C150.217 12.1288 149.561 12.2107 148.741 12.2107H144.562V1.06537H144.48ZM146.775 2.95024V10.3259H148.414C149.069 10.3259 149.479 10.3259 149.725 10.2439C150.053 10.162 150.38 9.99805 150.626 9.7522C150.872 9.50634 151.036 9.17854 151.2 8.68683C151.364 8.19512 151.446 7.53951 151.446 6.63805C151.446 5.81854 151.364 5.16293 151.2 4.67122C151.036 4.17951 150.872 3.85171 150.544 3.60585C150.299 3.36 149.971 3.1961 149.479 3.11415C149.151 3.03219 148.578 3.03219 147.676 3.03219C147.758 2.95024 146.775 2.95024 146.775 2.95024ZM155.625 12.1288V1.06537H157.838V12.1288H155.625ZM162.509 12.1288V2.95024H159.231V1.06537H168V2.95024H164.722V12.2107H162.509V12.1288ZM58.3493 30.8137V19.7502H61.7093L63.6761 27.2898L65.6429 19.7502H69.0029V30.8137H66.9542V22.0449L64.7415 30.8137H62.6107L60.48 22.1268V30.8956C60.48 30.8137 58.3493 30.8137 58.3493 30.8137ZM81.2956 30.8137H78.919L77.9356 28.2732H73.5102L72.6088 30.8137H70.2322L74.4937 19.7502H76.8703L81.2956 30.8137ZM77.1981 26.4702L75.641 22.3727L74.1659 26.4702H77.1981ZM82.5249 30.8137V19.7502H84.7376V24.6673L89.2449 19.7502H92.2771L88.0976 24.0937L92.5229 30.8956H89.6546L86.6224 25.6507L84.8195 27.5356V30.8956H82.5249V30.8137ZM93.6703 30.8137V19.7502H101.865V21.6351H95.8829V24.0937H101.456V25.9785H95.8829V29.0107H102.029V30.8956H93.6703V30.8137ZM103.996 30.8137V19.7502H108.749C109.897 19.7502 110.798 19.8322 111.372 20.0781C111.945 20.242 112.355 20.6517 112.683 21.1434C113.011 21.6351 113.175 22.2088 113.175 22.8644C113.175 23.6839 112.929 24.4215 112.437 24.9132C111.945 25.4868 111.208 25.8146 110.224 25.9785C110.716 26.2244 111.126 26.5522 111.454 26.88C111.781 27.2078 112.191 27.7815 112.683 28.6829L113.994 30.8137H111.29L109.651 28.3551C109.077 27.5356 108.667 26.962 108.503 26.7161C108.258 26.4702 108.094 26.3063 107.848 26.2244C107.602 26.1424 107.192 26.0605 106.7 26.0605H106.209V30.7317H103.996V30.8137ZM106.209 24.4215H107.848C108.913 24.4215 109.569 24.3395 109.897 24.2576C110.142 24.1756 110.388 24.0117 110.552 23.7659C110.716 23.52 110.798 23.2741 110.798 22.9463C110.798 22.5366 110.716 22.2907 110.47 22.0449C110.306 21.799 109.979 21.6351 109.651 21.6351C109.487 21.6351 108.913 21.6351 108.012 21.6351H106.291V24.4215H106.209Z" fill="#005898"/>
<path fill-rule="evenodd" clip-rule="evenodd" d="M49.3346 28.9288V3.5239C49.3346 1.63902 47.8595 0.1639 46.0566 0.1639H3.35998C1.55705 0.1639 0.0819321 1.63902 0.0819321 3.5239V28.9288C0.0819321 30.8137 1.55705 32.2888 3.35998 32.2888H46.1385C47.8595 32.2888 49.3346 30.8137 49.3346 28.9288Z" fill="#009EE8"/>
<path fill-rule="evenodd" clip-rule="evenodd" d="M0.0819321 29.0927C0.163883 30.8956 1.63901 32.2888 3.35998 32.2888H21.7171L25.7327 28.2732C25.3229 28.601 24.8312 28.7649 24.2575 28.7649H22.7005H19.0127H9.17852C7.45754 28.7649 5.81852 28.1093 4.6712 26.88C2.54047 24.4215 1.4751 25.9785 0.655591 25.9785H0.327786C0.245835 25.9785 0.163883 25.9785 0.0819321 25.9785C0.0819321 25.9785 0.0819321 29.0927 0.0819321 29.0927Z" fill="#005898"/>
<path fill-rule="evenodd" clip-rule="evenodd" d="M0 10.4898V26.7161C0.573659 26.2244 1.31122 25.9785 2.13073 25.9785H2.37659C3.1961 25.9785 4.01561 26.3063 4.67122 26.88C5.90049 28.1093 7.53951 28.7649 9.17854 28.7649H19.0946H22.7824H24.3395C25.7327 28.7649 26.798 27.6995 26.798 26.3063C26.798 25.0771 25.8966 24.0937 24.7493 23.8478C25.8966 23.6019 26.798 22.6185 26.798 21.3893C26.798 20.16 25.8966 19.1766 24.7493 18.9307C25.8966 18.6849 26.798 17.4556 26.798 16.2263C26.798 15.079 25.9785 14.0956 24.9132 13.8498H35.0751C36.4683 13.8498 37.5337 12.7844 37.5337 11.3912C37.5337 9.99804 36.4683 8.93268 35.0751 8.93268H22.7824H20.6517H19.9141C20.8156 8.60487 21.3893 7.70341 21.3893 6.72C21.3893 5.40878 20.3239 4.34341 19.0127 4.34341H11.6371C10.8176 4.34341 10.08 4.67122 9.42439 5.24487L4.67122 9.91609C4.01561 10.4898 3.1961 10.8995 2.29463 10.8995H1.63902C1.06537 10.8995 0.491707 10.7356 0 10.4898Z" fill="white"/>
<path d="M36.5502 13.358C36.0585 13.6858 35.5668 13.9317 34.9932 13.9317H24.8312C25.8966 14.1776 26.7161 15.161 26.7161 16.3083C26.7161 17.5376 25.8146 18.8488 24.6673 19.0127C25.8146 19.1766 26.7161 20.2419 26.7161 21.4712C26.7161 22.7005 25.8146 23.6839 24.6673 23.9298C24.9951 24.0117 25.3229 24.0937 25.6507 24.3395C25.6507 24.2576 36.5502 13.358 36.5502 13.358Z" fill="#005898"/>
</g>
<defs>
<clipPath id="clip0_2_30">
<rect width="168" height="32" fill="white"/>
</clipPath>
</defs>
</svg>
