<svg width="48" height="32" viewBox="0 0 48 32" fill="none" xmlns="http://www.w3.org/2000/svg">
<path fill-rule="evenodd" clip-rule="evenodd" d="M0 8.2V28.9C0.7 28.3 1.7 27.9 2.7 27.9H3.1C4.2 27.9 5.2 28.3 6 29.1C7.5 30.6 9.6 31.5 11.8 31.5H24.5H29.2H31C32.7 31.5 34.1 30.1 34.1 28.4C34.1 26.8 33 25.5 31.5 25.3C33 25 34.1 23.8 34.1 22.2C34.1 20.6 32.9 19.3 31.4 19.1C32.9 18.8 34.1 17.2 34.1 15.6C34.1 14.1 33.1 12.9 31.7 12.5H44.7C46.4 12.5 47.8 11.1 47.8 9.4C47.8 7.7 46.4 6.3 44.7 6.3H29.1H26.4H25.4C26.5 5.9 27.3 4.8 27.3 3.5C27.3 1.8 25.9 0.5 24.3 0.5H14.9C13.9 0.5 12.9 0.9 12.1 1.6L6 7.6C5.2 8.4 4.1 8.8 3 8.8H2.1C1.3 8.7 0.6 8.5 0 8.2Z" fill="white"/>
</svg>
