<svg width="38" height="25" viewBox="0 0 38 25" fill="none" xmlns="http://www.w3.org/2000/svg">
<path fill-rule="evenodd" clip-rule="evenodd" d="M0 6.48976V22.7161C0.573659 22.2244 1.31122 21.9785 2.13073 21.9785H2.37659C3.1961 21.9785 4.01561 22.3063 4.67122 22.88C5.90049 24.1093 7.53951 24.7649 9.17854 24.7649H19.0946H22.7824H24.3395C25.7327 24.7649 26.798 23.6995 26.798 22.3063C26.798 21.0771 25.8966 20.0937 24.7493 19.8478C25.8966 19.6019 26.798 18.6185 26.798 17.3893C26.798 16.16 25.8966 15.1766 24.7493 14.9307C25.8966 14.6849 26.798 13.4556 26.798 12.2263C26.798 11.079 25.9785 10.0956 24.9132 9.84976H35.0751C36.4683 9.84976 37.5337 8.78439 37.5337 7.39122C37.5337 5.99805 36.4683 4.93268 35.0751 4.93268H22.7824H20.6517H19.9141C20.8156 4.60488 21.3893 3.70341 21.3893 2.72C21.3893 1.40878 20.3239 0.343414 19.0127 0.343414H11.6371C10.8176 0.343414 10.08 0.671219 9.42439 1.24488L4.67122 5.9161C4.01561 6.48976 3.1961 6.89951 2.29463 6.89951H1.63902C1.06537 6.89951 0.491707 6.73561 0 6.48976Z" fill="white"/>
</svg>
