<svg width="141" height="40" viewBox="0 0 141 40" fill="none" xmlns="http://www.w3.org/2000/svg">
<path d="M77.9 10L80.7 10.9C80.3 12.5 79.6 13.6 78.6 14.4C77.6 15.2 76.4 15.5 74.8 15.5C72.9 15.5 71.4 14.9 70.2 13.6C69 12.3 68.4 10.6 68.4 8.30005C68.4 5.90005 69 4.10005 70.2 2.80005C71.4 1.50005 73 0.800049 75 0.800049C76.7 0.800049 78.1 1.30005 79.2 2.30005C79.8 2.90005 80.3 3.80005 80.7 4.90005L77.9 5.60005C77.7 4.90005 77.4 4.30005 76.9 3.90005C76.4 3.50005 75.7 3.30005 75 3.30005C73.9 3.30005 73.1 3.70005 72.4 4.40005C71.7 5.20005 71.4 6.40005 71.4 8.10005C71.4 9.90005 71.7 11.2 72.4 11.9C73 12.7 73.9 13 74.9 13C75.7 13 76.3 12.8 76.9 12.3C77.3 11.8 77.7 11.1 77.9 10ZM83.1 15.3V1.10005H89.1C90.6 1.10005 91.7 1.20005 92.4 1.50005C93.1 1.80005 93.6 2.20005 94 2.90005C94.4 3.60005 94.6 4.30005 94.6 5.10005C94.6 6.20005 94.3 7.00005 93.7 7.70005C93.1 8.40005 92.1 8.80005 90.9 9.00005C91.5 9.40005 92 9.80005 92.4 10.2C92.8 10.6 93.3 11.4 94 12.5L95.7 15.3H92.3L90.2 12.2C89.5 11.1 89 10.4 88.7 10.1C88.4 9.80005 88.1 9.60005 87.8 9.50005C87.5 9.40005 87 9.30005 86.4 9.30005H86V15.2H83.1V15.3ZM86 7.10005H88.1C89.5 7.10005 90.3 7.00005 90.7 6.90005C91 6.80005 91.3 6.60005 91.5 6.30005C91.7 6.00005 91.8 5.70005 91.8 5.20005C91.8 4.70005 91.7 4.30005 91.4 4.00005C91.1 3.70005 90.8 3.50005 90.3 3.40005C90.1 3.40005 89.4 3.40005 88.2 3.40005H86V7.10005ZM97.4 15.3V1.10005H107.9V3.50005H100.3V6.60005H107.4V9.00005H100.3V12.8H108.2V15.2H97.4V15.3ZM110.6 1.10005H115.8C117 1.10005 117.9 1.20005 118.5 1.40005C119.3 1.60005 120 2.10005 120.6 2.70005C121.2 3.30005 121.6 4.10005 122 5.00005C122.3 5.90005 122.5 7.00005 122.5 8.30005C122.5 9.50005 122.4 10.5 122.1 11.3C121.7 12.3 121.2 13.2 120.6 13.8C120.1 14.3 119.4 14.7 118.6 14.9C118 15.1 117.1 15.2 116.1 15.2H110.7C110.6 15.3 110.6 1.10005 110.6 1.10005ZM113.4 3.50005V12.9H115.5C116.3 12.9 116.9 12.9 117.2 12.8C117.7 12.7 118 12.5 118.4 12.2C118.7 11.9 119 11.5 119.1 10.8C119.3 10.2 119.4 9.30005 119.4 8.20005C119.4 7.10005 119.3 6.30005 119.1 5.70005C118.9 5.10005 118.6 4.70005 118.3 4.30005C118 4.00005 117.5 3.80005 117 3.60005C116.6 3.50005 115.8 3.50005 114.7 3.50005H113.4ZM124.8 15.3V1.10005H127.7V15.3H124.8ZM133.5 15.3V3.50005H129.3V1.10005H140.5V3.50005H136.3V15.3H133.5ZM0.600006 39.6V25.4H4.90001L7.40001 35.1L9.90001 25.4H14.2V39.6H11.6V28.4001L8.80001 39.6H6.00001L3.2 28.4001V39.6H0.600006ZM29.8 39.6H26.7L25.5 36.4001H19.8L18.6 39.6H15.6L21.1 25.4H24.1L29.8 39.6ZM24.6 34L22.6 28.8L20.7 34H24.6ZM31.4 39.6V25.4H34.3V31.7001L40.1 25.4H43.9L38.6 30.9001L44.2 39.5H40.5L36.6 32.8L34.3 35.2001V39.5C34.3 39.6 31.4 39.6 31.4 39.6ZM45.6 39.6V25.4H56.1V27.8H48.5V30.9001H55.6V33.3H48.5V37.1H56.4V39.5H45.6V39.6ZM58.8 39.6V25.4H64.8C66.3 25.4 67.4 25.5 68.1 25.8C68.8 26.1 69.3 26.5 69.7 27.2001C70.1 27.9001 70.3 28.6001 70.3 29.4001C70.3 30.5001 70 31.3 69.4 32C68.8 32.7001 67.9 33.1 66.6 33.3C67.2 33.7001 67.7 34.1 68.1 34.5C68.5 34.9001 69 35.7001 69.7 36.8L71.4 39.6H68L66 36.5C65.3 35.4001 64.8 34.7001 64.5 34.4001C64.2 34.1001 63.9 33.9 63.6 33.8C63.3 33.7001 62.8 33.6 62.2 33.6H61.6V39.5L58.8 39.6ZM61.7 31.4001H63.8C65.2 31.4001 66 31.3001 66.4 31.2001C66.7 31.1 67 30.9 67.2 30.6C67.4 30.3 67.5 30 67.5 29.5C67.5 29 67.4 28.6 67.1 28.3C66.8 28 66.5 27.8001 66 27.7001C65.8 27.7001 65.1 27.7001 63.9 27.7001H61.7V31.4001Z" fill="white"/>
</svg>
