<svg width="164" height="32" viewBox="0 0 164 32" fill="none" xmlns="http://www.w3.org/2000/svg">
<path d="M1.2 12.3V0.900024H8.89999V2.20002H2.7V5.70002H8V7.00002H2.7V12.2H1.2V12.3ZM10.7 2.50002V0.900024H12.1V2.50002H10.7ZM10.7 12.3V4.00002H12.1V12.2H10.7V12.3ZM14.2 12.3V4.00002H15.5V5.20002C16.1 4.30002 17 3.90002 18.1 3.90002C18.6 3.90002 19.1 4.00002 19.5 4.20002C19.9 4.40002 20.2 4.60002 20.4 4.90002C20.6 5.20002 20.8 5.50002 20.8 5.90002C20.9 6.20002 20.9 6.60002 20.9 7.30002V12.4H19.5V7.40002C19.5 6.80002 19.4 6.40002 19.3 6.10002C19.2 5.80002 19 5.60002 18.7 5.40002C18.4 5.20002 18.1 5.20002 17.7 5.20002C17.1 5.20002 16.6 5.40002 16.2 5.80002C15.8 6.20002 15.6 6.90002 15.6 8.00002V12.5H14.2V12.3ZM28.4 12.3V11.3C27.9 12.1 27.1 12.5 26.1 12.5C25.4 12.5 24.8 12.3 24.3 12C23.8 11.6 23.3 11.1 23 10.5C22.7 9.90002 22.5 9.10002 22.5 8.30002C22.5 7.50002 22.6 6.70002 22.9 6.10002C23.2 5.40002 23.6 4.90002 24.1 4.60002C24.6 4.20002 25.3 4.10002 25.9 4.10002C26.4 4.10002 26.8 4.20002 27.2 4.40002C27.6 4.60002 27.9 4.90002 28.1 5.20002V0.900024H29.5V12.3H28.4ZM24 8.10002C24 9.20002 24.2 9.90002 24.7 10.5C25.1 11 25.7 11.3 26.3 11.3C26.9 11.3 27.4 11.1 27.9 10.6C28.3 10.1 28.5 9.30002 28.5 8.30002C28.5 7.20002 28.3 6.40002 27.8 5.80002C27.4 5.30002 26.8 5.00002 26.2 5.00002C25.6 5.00002 25.1 5.30002 24.6 5.80002C24.2 6.30002 24 7.10002 24 8.10002ZM39.3 11L39.5 12.2C39.1 12.3 38.8 12.3 38.4 12.3C37.9 12.3 37.5 12.2 37.2 12.1C36.9 12 36.7 11.7 36.6 11.5C36.5 11.3 36.4 10.7 36.4 9.80002V5.00002H35.4V4.00002H36.4V2.00002L37.8 1.20002V4.00002H39.2V5.10002H37.8V9.90002C37.8 10.3 37.8 10.6 37.9 10.7C37.9 10.8 38 10.9 38.1 11C38.2 11.1 38.4 11.1 38.6 11.1C38.9 11.1 39.1 11 39.3 11ZM40.7 12.3V0.900024H42.1V5.00002C42.7 4.20002 43.6 3.90002 44.6 3.90002C45.2 3.90002 45.7 4.00002 46.2 4.30002C46.6 4.50002 47 4.90002 47.2 5.30002C47.4 5.70002 47.5 6.30002 47.5 7.10002V12.3H46V7.00002C46 6.30002 45.8 5.80002 45.6 5.50002C45.3 5.20002 44.9 5.00002 44.3 5.00002C43.9 5.00002 43.5 5.10002 43.1 5.30002C42.7 5.50002 42.5 5.80002 42.3 6.20002C42.1 6.60002 42.1 7.10002 42.1 7.70002V12.2H40.7V12.3ZM55.1 9.60003L56.5 9.80002C56.3 10.6 55.9 11.3 55.2 11.8C54.6 12.3 53.8 12.5 52.8 12.5C51.6 12.5 50.6 12.1 49.9 11.4C49.2 10.7 48.8 9.60002 48.8 8.30002C48.8 6.90002 49.2 5.80002 49.9 5.10002C50.6 4.30002 51.5 4.00002 52.7 4.00002C53.8 4.00002 54.7 4.40002 55.4 5.10002C56.1 5.80002 56.4 6.90002 56.4 8.30002C56.4 8.40002 56.4 8.50002 56.4 8.70002H50.3C50.4 9.60002 50.6 10.3 51.1 10.8C51.6 11.3 52.1 11.5 52.8 11.5C53.3 11.5 53.7 11.4 54.1 11.1C54.6 10.6 54.9 10.2 55.1 9.60003ZM50.6 7.30002H55.2C55.1 6.60002 55 6.10002 54.7 5.70002C54.3 5.20002 53.7 4.90002 53 4.90002C52.4 4.90002 51.8 5.10002 51.4 5.50002C50.9 6.00002 50.6 6.60002 50.6 7.30002ZM64.1 12.3H62.8V0.900024H64.2V5.00002C64.8 4.30002 65.5 3.90002 66.5 3.90002C67 3.90002 67.5 4.00002 67.9 4.20002C68.4 4.40002 68.7 4.70002 69 5.10002C69.3 5.50002 69.5 5.90002 69.7 6.40002C69.9 6.90002 69.9 7.50002 69.9 8.10002C69.9 9.50002 69.5 10.6 68.9 11.4C68.2 12.2 67.4 12.6 66.4 12.6C65.4 12.6 64.7 12.2 64.1 11.4V12.3ZM64 8.10002C64 9.10003 64.1 9.80003 64.4 10.2C64.8 10.9 65.4 11.3 66.2 11.3C66.8 11.3 67.3 11 67.8 10.5C68.2 10 68.5 9.20002 68.5 8.10002C68.5 7.00002 68.3 6.20002 67.9 5.70002C67.5 5.20002 67 4.90002 66.4 4.90002C65.8 4.90002 65.3 5.20002 64.8 5.70002C64.3 6.30002 64 7.10002 64 8.10002ZM77.2 9.60003L78.6 9.80002C78.4 10.6 78 11.3 77.3 11.8C76.7 12.3 75.9 12.5 74.9 12.5C73.7 12.5 72.7 12.1 72 11.4C71.3 10.7 70.9 9.60002 70.9 8.30002C70.9 6.90002 71.3 5.80002 72 5.10002C72.7 4.30002 73.6 4.00002 74.8 4.00002C75.9 4.00002 76.8 4.40002 77.5 5.10002C78.2 5.80002 78.5 6.90002 78.5 8.30002C78.5 8.40002 78.5 8.50002 78.5 8.70002H72.4C72.5 9.60002 72.7 10.3 73.2 10.8C73.7 11.3 74.2 11.5 74.9 11.5C75.4 11.5 75.8 11.4 76.2 11.1C76.7 10.6 77 10.2 77.2 9.60003ZM72.6 7.30002H77.2C77.1 6.60002 77 6.10002 76.7 5.70002C76.3 5.20002 75.7 4.90002 75 4.90002C74.4 4.90002 73.8 5.10002 73.4 5.50002C72.9 6.00002 72.7 6.60002 72.6 7.30002ZM79.9 9.80002L81.3 9.60003C81.4 10.2 81.6 10.6 81.9 10.9C82.3 11.2 82.7 11.3 83.4 11.3C84 11.3 84.5 11.2 84.8 10.9C85.1 10.6 85.3 10.3 85.3 10C85.3 9.70002 85.2 9.40002 84.9 9.30002C84.7 9.20002 84.2 9.00002 83.5 8.80002C82.5 8.50002 81.8 8.30002 81.4 8.10002C81 7.90002 80.7 7.60002 80.5 7.30002C80.3 7.00002 80.2 6.60002 80.2 6.20002C80.2 5.80002 80.3 5.50002 80.5 5.20002C80.7 4.90002 80.9 4.60002 81.2 4.40002C81.4 4.20002 81.7 4.10002 82.1 4.00002C82.5 3.90002 82.9 3.80002 83.3 3.80002C83.9 3.80002 84.5 3.90002 85 4.10002C85.5 4.30002 85.8 4.50002 86.1 4.90002C86.3 5.20002 86.5 5.60002 86.6 6.20002L85.2 6.40002C85.1 6.00002 85 5.60002 84.7 5.40002C84.4 5.20002 84 5.00002 83.4 5.00002C82.8 5.00002 82.3 5.10002 82 5.30002C81.7 5.50002 81.6 5.80002 81.6 6.00002C81.6 6.20002 81.7 6.30002 81.8 6.50002C81.9 6.70002 82.1 6.80002 82.3 6.90002C82.4 7.00002 82.8 7.10002 83.5 7.30002C84.5 7.60002 85.2 7.80002 85.6 7.90002C86 8.10002 86.3 8.30002 86.5 8.60002C86.7 8.90002 86.8 9.30002 86.8 9.80002C86.8 10.3 86.7 10.7 86.4 11.1C86.1 11.5 85.7 11.8 85.2 12.1C84.7 12.3 84.1 12.4 83.5 12.4C82.4 12.4 81.6 12.2 81.1 11.7C80.4 11.3 80 10.7 79.9 9.80002ZM91.4 11L91.6 12.2C91.2 12.3 90.9 12.3 90.5 12.3C90 12.3 89.6 12.2 89.3 12.1C89 11.9 88.8 11.7 88.7 11.5C88.6 11.2 88.5 10.7 88.5 9.80002V5.00002H87.5V4.00002H88.5V2.00002L89.9 1.20002V4.00002H91.3V5.10002H90V9.90002C90 10.3 90 10.6 90.1 10.7C90.1 10.8 90.2 10.9 90.3 11C90.4 11.1 90.6 11.1 90.8 11.1C90.9 11.1 91.1 11 91.4 11ZM6.39999 28.8L7.8 29C7.6 29.9 7.3 30.7 6.7 31.2C6.1 31.7 5.29999 32 4.39999 32C3.29999 32 2.4 31.6 1.7 30.9C0.999997 30.2 0.699997 29.1 0.699997 27.7C0.699997 26.8 0.800006 26 1.10001 25.4C1.40001 24.7 1.79999 24.2 2.39999 23.9C2.99999 23.6 3.69999 23.4 4.39999 23.4C5.29999 23.4 6.00001 23.6 6.60001 24.1C7.20001 24.6 7.5 25.2 7.7 26L6.3 26.2C6.2 25.6 5.90001 25.2 5.60001 25C5.30001 24.7 4.89999 24.6 4.39999 24.6C3.69999 24.6 3.1 24.9 2.7 25.4C2.3 25.9 2 26.7 2 27.8C2 28.9 2.20001 29.7 2.60001 30.2C3.00001 30.7 3.6 31 4.3 31C4.8 31 5.3 30.8 5.7 30.5C6 30 6.29999 29.5 6.39999 28.8ZM8.89999 31.8V23.6H10.2V24.9C10.5 24.3 10.8 23.9 11.1 23.7C11.4 23.5 11.7 23.4 12 23.4C12.5 23.4 13 23.5 13.4 23.8L12.9 25.1C12.6 24.9 12.2 24.8 11.9 24.8C11.6 24.8 11.3 24.9 11.1 25.1C10.9 25.3 10.7 25.5 10.6 25.9C10.4 26.4 10.4 26.9 10.4 27.5V31.8H8.89999ZM19.8 29.1L21.2 29.3C21 30.1 20.6 30.8 19.9 31.3C19.3 31.8 18.5 32 17.5 32C16.3 32 15.3 31.6 14.6 30.9C13.9 30.2 13.5 29.1 13.5 27.8C13.5 26.4 13.9 25.3 14.6 24.6C15.3 23.8 16.2 23.5 17.4 23.5C18.5 23.5 19.4 23.9 20.1 24.6C20.8 25.3 21.1 26.4 21.1 27.8C21.1 27.9 21.1 28 21.1 28.2H15C15.1 29.1 15.3 29.8 15.8 30.3C16.3 30.8 16.8 31 17.5 31C18 31 18.4 30.9 18.8 30.6C19.3 30.1 19.6 29.7 19.8 29.1ZM15.3 26.9H19.9C19.8 26.2 19.7 25.7 19.4 25.3C19 24.8 18.4 24.5 17.7 24.5C17.1 24.5 16.5 24.7 16.1 25.1C15.6 25.6 15.3 26.1 15.3 26.9ZM28.4 31.8V30.8C27.9 31.6 27.1 32 26.1 32C25.4 32 24.8 31.8 24.3 31.5C23.8 31.1 23.3 30.6 23 30C22.7 29.4 22.5 28.6 22.5 27.8C22.5 27 22.6 26.2 22.9 25.6C23.2 25 23.6 24.4 24.1 24.1C24.6 23.7 25.3 23.6 25.9 23.6C26.4 23.6 26.8 23.7 27.2 23.9C27.6 24.1 27.9 24.4 28.1 24.7V20.6H29.5V32L28.4 31.8ZM24 27.7C24 28.8 24.2 29.5 24.7 30.1C25.1 30.6 25.7 30.9 26.3 30.9C26.9 30.9 27.4 30.7 27.9 30.2C28.4 29.7 28.5 28.9 28.5 27.9C28.5 26.8 28.3 26 27.8 25.4C27.4 24.9 26.8 24.6 26.2 24.6C25.6 24.6 25.1 24.9 24.6 25.4C24.2 25.8 24 26.6 24 27.7ZM31.9 22V20.4H33.3V22H31.9ZM31.9 31.8V23.6H33.3V31.8H31.9ZM38.4 30.5L38.6 31.7C38.2 31.8 37.9 31.8 37.5 31.8C37 31.8 36.6 31.7 36.3 31.6C36 31.4 35.8 31.2 35.7 31C35.6 30.7 35.5 30.2 35.5 29.3V24.5H34.5V23.4H35.5V21.4L36.9 20.6V23.5H38.3V24.6H37V29.4C37 29.8 37 30.1 37.1 30.2C37.1 30.3 37.2 30.4 37.3 30.5C37.4 30.6 37.6 30.6 37.8 30.6C38 30.6 38.2 30.6 38.4 30.5ZM49.6 28.8L51 29C50.8 29.9 50.5 30.7 49.9 31.2C49.3 31.7 48.5 32 47.6 32C46.5 32 45.6 31.6 44.9 30.9C44.2 30.2 43.9 29.1 43.9 27.7C43.9 26.8 44 26 44.3 25.4C44.6 24.7 45 24.2 45.6 23.9C46.2 23.6 46.9 23.4 47.6 23.4C48.5 23.4 49.2 23.6 49.8 24.1C50.4 24.6 50.7 25.2 50.9 26L49.5 26.2C49.4 25.6 49.1 25.2 48.8 25C48.5 24.7 48.1 24.6 47.6 24.6C46.9 24.6 46.3 24.9 45.9 25.4C45.5 25.9 45.2 26.7 45.2 27.8C45.2 28.9 45.4 29.7 45.8 30.2C46.2 30.7 46.8 31 47.5 31C48 31 48.5 30.8 48.9 30.5C49.3 30 49.5 29.5 49.6 28.8ZM57.5 30.7C57 31.1 56.5 31.5 56 31.6C55.5 31.8 55 31.9 54.5 31.9C53.6 31.9 52.9 31.7 52.4 31.2C51.9 30.8 51.7 30.2 51.7 29.5C51.7 29.1 51.8 28.7 52 28.4C52.2 28.1 52.4 27.8 52.7 27.6C53 27.4 53.3 27.2 53.7 27.1C54 27 54.4 27 54.9 26.9C56 26.8 56.9 26.6 57.4 26.4C57.4 26.2 57.4 26.1 57.4 26C57.4 25.4 57.3 25 57 24.8C56.6 24.5 56.1 24.3 55.4 24.3C54.7 24.3 54.3 24.4 53.9 24.6C53.6 24.8 53.4 25.2 53.2 25.8L51.8 25.6C51.9 25 52.1 24.5 52.4 24.2C52.7 23.8 53.1 23.6 53.6 23.4C54.1 23.2 54.8 23.1 55.5 23.1C56.2 23.1 56.8 23.2 57.2 23.3C57.6 23.5 58 23.7 58.2 23.9C58.4 24.2 58.6 24.5 58.6 24.9C58.6 25.1 58.7 25.6 58.7 26.2V28.1C58.7 29.4 58.7 30.2 58.8 30.6C58.9 30.9 59 31.3 59.1 31.6H57.6C57.7 31.5 57.6 31.1 57.5 30.7ZM57.4 27.7C56.9 27.9 56.1 28.1 55.1 28.2C54.5 28.3 54.1 28.4 53.9 28.5C53.7 28.6 53.5 28.8 53.4 29C53.3 29.2 53.2 29.4 53.2 29.7C53.2 30.1 53.3 30.4 53.6 30.6C53.9 30.8 54.3 31 54.8 31C55.3 31 55.8 30.9 56.2 30.6C56.6 30.4 56.9 30 57.1 29.6C57.3 29.3 57.3 28.8 57.3 28.2L57.4 27.7ZM61 31.8V23.6H62.3V24.9C62.6 24.3 62.9 23.9 63.2 23.7C63.5 23.5 63.8 23.4 64.1 23.4C64.6 23.4 65 23.5 65.5 23.8L65 25.1C64.7 24.9 64.3 24.8 64 24.8C63.7 24.8 63.4 24.9 63.2 25.1C63 25.3 62.8 25.5 62.7 25.9C62.5 26.4 62.5 26.9 62.5 27.5V31.8H61ZM71.6 31.8V30.8C71.1 31.6 70.3 32 69.3 32C68.6 32 68 31.8 67.5 31.5C67 31.1 66.5 30.6 66.2 30C65.9 29.4 65.7 28.6 65.7 27.8C65.7 27 65.8 26.2 66.1 25.6C66.4 24.9 66.8 24.4 67.3 24.1C67.8 23.7 68.5 23.6 69.1 23.6C69.6 23.6 70 23.7 70.4 23.9C70.8 24.1 71.1 24.4 71.3 24.7V20.6H72.7V32L71.6 31.8ZM67.2 27.7C67.2 28.8 67.4 29.5 67.9 30.1C68.3 30.6 68.9 30.9 69.5 30.9C70.1 30.9 70.6 30.7 71.1 30.2C71.6 29.7 71.7 28.9 71.7 27.9C71.7 26.8 71.5 26 71 25.4C70.6 24.9 70 24.6 69.4 24.6C68.8 24.6 68.3 24.9 67.8 25.4C67.4 25.8 67.2 26.6 67.2 27.7ZM79 27.7C79 26.2 79.4 25 80.3 24.3C81 23.7 81.9 23.4 82.9 23.4C84 23.4 85 23.8 85.7 24.5C86.4 25.2 86.8 26.3 86.8 27.6C86.8 28.7 86.6 29.5 86.3 30.1C86 30.7 85.5 31.2 84.9 31.5C84.3 31.8 83.6 32 82.9 32C81.7 32 80.8 31.6 80.1 30.9C79.3 30.1 79 29 79 27.7ZM80.4 27.7C80.4 28.8 80.6 29.5 81.1 30.1C81.6 30.6 82.1 30.9 82.8 30.9C83.5 30.9 84.1 30.6 84.5 30.1C85 29.6 85.2 28.8 85.2 27.7C85.2 26.7 85 25.9 84.5 25.4C84 24.9 83.5 24.6 82.8 24.6C82.1 24.6 81.5 24.9 81.1 25.4C80.7 25.8 80.4 26.6 80.4 27.7ZM88.7 31.8V24.6H87.5V23.5H88.7V22.6C88.7 22 88.7 21.6 88.8 21.4C88.9 21 89.2 20.7 89.5 20.5C89.8 20.3 90.3 20.2 90.9 20.2C91.3 20.2 91.7 20.2 92.2 20.3L92 21.5C91.7 21.5 91.4 21.4 91.2 21.4C90.8 21.4 90.5 21.5 90.3 21.7C90.1 21.9 90 22.2 90 22.7V23.5H91.6V24.6H90V31.8H88.7ZM92.8 31.8V24.6H91.6V23.5H92.8V22.6C92.8 22 92.8 21.6 92.9 21.4C93 21 93.3 20.7 93.6 20.5C93.9 20.3 94.4 20.2 95 20.2C95.4 20.2 95.8 20.2 96.3 20.3L96.1 21.5C95.8 21.5 95.5 21.4 95.3 21.4C94.9 21.4 94.6 21.5 94.4 21.7C94.2 21.9 94.1 22.2 94.1 22.7V23.5H95.7V24.6H94.1V31.8H92.8ZM102.5 29.1L103.9 29.3C103.7 30.1 103.3 30.8 102.6 31.3C102 31.8 101.2 32 100.2 32C99 32 98 31.6 97.3 30.9C96.6 30.2 96.2 29.1 96.2 27.8C96.2 26.4 96.6 25.3 97.3 24.6C98 23.8 98.9 23.5 100.1 23.5C101.2 23.5 102.1 23.9 102.8 24.6C103.5 25.3 103.8 26.4 103.8 27.8C103.8 27.9 103.8 28 103.8 28.2H97.7C97.8 29.1 98 29.8 98.5 30.3C99 30.8 99.5 31 100.2 31C100.7 31 101.1 30.9 101.5 30.6C102 30.1 102.3 29.7 102.5 29.1ZM97.9 26.9H102.5C102.4 26.2 102.3 25.7 102 25.3C101.6 24.8 101 24.5 100.3 24.5C99.7 24.5 99.1 24.7 98.7 25.1C98.3 25.5 98 26.1 97.9 26.9ZM105.7 31.8V23.6H107V24.9C107.3 24.3 107.6 23.9 107.9 23.7C108.2 23.5 108.5 23.4 108.8 23.4C109.3 23.4 109.7 23.5 110.2 23.8L109.7 25.1C109.4 24.9 109 24.8 108.7 24.8C108.4 24.8 108.1 24.9 107.9 25.1C107.7 25.3 107.5 25.5 107.4 25.9C107.2 26.4 107.2 26.9 107.2 27.5V31.8C107.1 31.8 105.7 31.8 105.7 31.8ZM110.4 29.3L111.8 29.1C111.9 29.7 112.1 30.1 112.4 30.4C112.8 30.7 113.3 30.8 113.9 30.8C114.5 30.8 115 30.7 115.3 30.4C115.6 30.1 115.8 29.8 115.8 29.5C115.8 29.2 115.7 28.9 115.4 28.8C115.2 28.7 114.7 28.5 114 28.3C113 28 112.3 27.8 111.9 27.6C111.5 27.4 111.2 27.1 111 26.8C110.8 26.5 110.7 26.1 110.7 25.7C110.7 25.3 110.8 25 110.9 24.7C111.1 24.4 111.3 24.1 111.6 23.9C111.8 23.7 112.1 23.6 112.5 23.5C112.9 23.4 113.3 23.3 113.7 23.3C114.3 23.3 114.9 23.4 115.4 23.6C115.9 23.8 116.2 24 116.5 24.4C116.7 24.7 116.9 25.1 117 25.7L115.6 25.9C115.5 25.5 115.4 25.1 115.1 24.9C114.8 24.7 114.4 24.5 113.8 24.5C113.2 24.5 112.7 24.6 112.4 24.8C112.1 25 112 25.3 112 25.5C112 25.7 112.1 25.8 112.2 26C112.3 26.1 112.5 26.3 112.7 26.4C112.8 26.5 113.2 26.6 113.9 26.8C114.9 27.1 115.6 27.3 116 27.4C116.4 27.6 116.7 27.8 116.9 28.1C117.1 28.4 117.2 28.8 117.2 29.3C117.2 29.8 117.1 30.2 116.8 30.6C116.5 31 116.1 31.3 115.6 31.6C115.1 31.8 114.5 31.9 113.9 31.9C112.8 31.9 112 31.7 111.5 31.2C111 30.8 110.6 30.2 110.4 29.3ZM122.8 27.7C122.8 26.2 123.2 25 124.1 24.3C124.8 23.7 125.7 23.4 126.7 23.4C127.8 23.4 128.8 23.8 129.5 24.5C130.2 25.2 130.6 26.3 130.6 27.6C130.6 28.7 130.4 29.5 130.1 30.1C129.8 30.7 129.3 31.2 128.7 31.5C128.1 31.8 127.4 32 126.7 32C125.5 32 124.6 31.6 123.9 30.9C123.2 30.1 122.8 29 122.8 27.7ZM124.3 27.7C124.3 28.8 124.5 29.5 125 30.1C125.5 30.6 126 30.9 126.7 30.9C127.4 30.9 128 30.6 128.4 30.1C128.9 29.6 129.1 28.8 129.1 27.7C129.1 26.7 128.9 25.9 128.4 25.4C127.9 24.9 127.4 24.6 126.7 24.6C126 24.6 125.4 24.9 125 25.4C124.5 25.8 124.3 26.6 124.3 27.7ZM132.2 31.8V23.6H133.5V24.8C134.1 23.9 135 23.5 136.1 23.5C136.6 23.5 137.1 23.6 137.5 23.8C137.9 24 138.2 24.2 138.4 24.5C138.6 24.8 138.8 25.1 138.8 25.5C138.9 25.8 138.9 26.2 138.9 26.9V32H137.5V27C137.5 26.4 137.4 26 137.3 25.7C137.2 25.4 137 25.2 136.7 25C136.4 24.8 136.1 24.7 135.7 24.7C135.1 24.7 134.6 24.9 134.2 25.3C133.8 25.7 133.6 26.4 133.6 27.4V31.9H132.2V31.8ZM141 31.8V20.4H142.4V31.8H141ZM144.5 22V20.4H145.9V22H144.5ZM144.5 31.8V23.6H145.9V31.8H144.5ZM148.1 31.8V23.6H149.4V24.8C150 23.9 150.9 23.5 152 23.5C152.5 23.5 153 23.6 153.4 23.8C153.8 24 154.1 24.2 154.3 24.5C154.5 24.8 154.7 25.1 154.7 25.5C154.7 25.8 154.8 26.2 154.8 26.9V32H153.4V27C153.4 26.4 153.3 26 153.2 25.7C153.1 25.4 152.9 25.2 152.6 25C152.3 24.8 152 24.7 151.6 24.7C151 24.7 150.5 24.9 150.1 25.3C149.7 25.7 149.5 26.4 149.5 27.4V31.9H148.1V31.8ZM162.5 29.1L163.9 29.3C163.7 30.1 163.3 30.8 162.6 31.3C162 31.8 161.2 32 160.2 32C159 32 158 31.6 157.3 30.9C156.6 30.2 156.2 29.1 156.2 27.8C156.2 26.4 156.6 25.3 157.3 24.6C158 23.8 158.9 23.5 160.1 23.5C161.2 23.5 162.1 23.9 162.8 24.6C163.5 25.3 163.8 26.4 163.8 27.8C163.8 27.9 163.8 28 163.8 28.2H157.7C157.8 29.1 158 29.8 158.5 30.3C159 30.8 159.5 31 160.2 31C160.7 31 161.1 30.9 161.5 30.6C162 30.1 162.3 29.7 162.5 29.1ZM157.9 26.9H162.5C162.4 26.2 162.3 25.7 162 25.3C161.6 24.8 161 24.5 160.3 24.5C159.7 24.5 159.1 24.7 158.7 25.1C158.2 25.6 158 26.1 157.9 26.9Z" fill="#009EE8"/>
</svg>
