<svg width="117" height="39" viewBox="0 0 117 39" fill="none" xmlns="http://www.w3.org/2000/svg">
<path d="M0.499992 0.900024H5.39999C6.49999 0.900024 7.39999 1.00002 7.89999 1.20002C8.69999 1.40002 9.39999 1.80002 9.89999 2.40002C10.5 3.00002 10.9 3.70002 11.2 4.60002C11.5 5.50002 11.6 6.50002 11.6 7.80002C11.6 8.90002 11.5 9.80002 11.2 10.6C10.9 11.6 10.4 12.4 9.8 13C9.3 13.5 8.69999 13.8 7.89999 14.1C7.29999 14.3 6.49999 14.4 5.49999 14.4H0.399994C0.499994 14.3 0.499992 0.900024 0.499992 0.900024ZM3.19999 3.20002V12H5.19999C5.89999 12 6.5 12 6.8 11.9C7.2 11.8 7.59999 11.6 7.89999 11.3C8.19999 11 8.39999 10.6 8.59999 10C8.79999 9.40002 8.89999 8.60002 8.89999 7.60002C8.89999 6.60002 8.79999 5.80002 8.59999 5.20002C8.39999 4.60002 8.2 4.20002 7.8 3.90002C7.5 3.60002 7.09999 3.40002 6.59999 3.30002C6.19999 3.20002 5.49999 3.20002 4.39999 3.20002H3.19999ZM14 14.3V0.900024H19.7C21.1 0.900024 22.2 1.00002 22.8 1.30002C23.4 1.50002 24 2.00002 24.4 2.60002C24.8 3.20002 25 3.90002 25 4.70002C25 5.70002 24.7 6.50002 24.1 7.20002C23.5 7.90002 22.6 8.30002 21.5 8.40002C22.1 8.70002 22.6 9.10003 22.9 9.50002C23.3 9.90002 23.8 10.6 24.4 11.7L26 14.3H22.8L20.9 11.4C20.2 10.4 19.7 9.70002 19.5 9.40002C19.2 9.10002 19 8.90002 18.7 8.80002C18.4 8.70002 18 8.60002 17.3 8.60002H16.8V14.2C16.7 14.3 14 14.3 14 14.3ZM16.7 6.60002H18.7C20 6.60002 20.8 6.50002 21.1 6.40002C21.4 6.30002 21.7 6.10002 21.9 5.80002C22.1 5.50002 22.2 5.20002 22.2 4.80002C22.2 4.30002 22.1 4.00002 21.8 3.70002C21.6 3.40002 21.2 3.20002 20.8 3.20002C20.6 3.20002 19.9 3.20002 18.8 3.20002H16.7V6.60002ZM27.4 14.3V0.900024H37.3V3.20002H30.1V6.20002H36.8V8.50002H30.1V12H37.5V14.3H27.4ZM51.8 14.3H48.9L47.7 11.3H42.4L41.3 14.3H38.4L43.6 1.00002H46.5L51.8 14.3ZM46.9 9.00002L45 4.00002L43.2 8.90002H46.9V9.00002ZM53.2 14.3V0.900024H57.2L59.6 10L62 0.900024H66V14.2H63.5V3.70002L60.9 14.2H58.3L55.7 3.70002V14.2H53.2V14.3ZM73 38.6V35.9H75.7V38.6H73ZM87.5 31.3L84.8 31.8C84.7 31.3 84.5 30.9 84.2 30.6C83.9 30.3 83.5 30.2 83 30.2C82.3 30.2 81.8 30.4 81.4 30.9C81 31.4 80.8 32.2 80.8 33.2C80.8 34.4 81 35.3 81.4 35.8C81.8 36.3 82.4 36.6 83 36.6C83.5 36.6 83.9 36.4 84.3 36.2C84.6 35.9 84.9 35.4 85 34.7L87.7 35.2C87.4 36.4 86.9 37.4 86.1 38C85.3 38.6 84.3 38.9 82.9 38.9C81.4 38.9 80.2 38.4 79.3 37.5C78.4 36.6 78 35.2 78 33.6C78 31.9 78.4 30.6 79.3 29.6C80.2 28.7 81.4 28.2 82.9 28.2C84.1 28.2 85.1 28.5 85.9 29C86.6 29.4 87.2 30.2 87.5 31.3ZM88.9 33.3C88.9 32.4 89.1 31.5 89.6 30.7C90 29.9 90.7 29.2 91.5 28.8C92.3 28.4 93.2 28.1 94.2 28.1C95.8 28.1 97 28.6 98 29.6C99 30.6 99.5 31.9 99.5 33.4C99.5 35 99 36.2 98 37.3C97 38.3 95.7 38.8 94.2 38.8C93.3 38.8 92.4 38.6 91.5 38.2C90.7 37.8 90 37.1 89.6 36.3C89.1 35.5 88.9 34.5 88.9 33.3ZM91.7 33.5C91.7 34.5 91.9 35.3 92.4 35.8C92.9 36.3 93.5 36.6 94.2 36.6C94.9 36.6 95.5 36.3 96 35.8C96.5 35.3 96.7 34.5 96.7 33.4C96.7 32.4 96.5 31.6 96 31.1C95.5 30.6 94.9 30.3 94.2 30.3C93.5 30.3 92.9 30.6 92.4 31.1C91.9 31.7 91.7 32.4 91.7 33.5ZM101.4 28.3H103.9V29.7C104.8 28.6 105.9 28.1 107.1 28.1C107.8 28.1 108.3 28.2 108.8 28.5C109.3 28.8 109.7 29.2 110 29.7C110.5 29.2 110.9 28.7 111.5 28.5C112 28.2 112.6 28.1 113.2 28.1C114 28.1 114.6 28.3 115.1 28.6C115.6 28.9 116 29.4 116.3 29.9C116.5 30.3 116.6 31 116.6 32V38.6H113.9V32.7C113.9 31.7 113.8 31 113.6 30.7C113.4 30.3 113 30.1 112.4 30.1C112 30.1 111.7 30.2 111.3 30.4C111 30.6 110.7 31 110.6 31.4C110.5 31.9 110.4 32.6 110.4 33.5V38.4H107.7V33C107.7 32 107.7 31.4 107.6 31.1C107.5 30.8 107.4 30.6 107.2 30.5C107 30.4 106.7 30.3 106.4 30.3C106 30.3 105.6 30.4 105.3 30.6C105 30.8 104.7 31.1 104.6 31.6C104.5 32 104.4 32.7 104.4 33.7V38.7H101.7L101.4 28.3Z" fill="#009EE8"/>
</svg>
