<svg width="283" height="34" viewBox="0 0 283 34" fill="none" xmlns="http://www.w3.org/2000/svg">
<path d="M52.3689 4.09391H55.7677C56.5307 4.09391 57.1549 4.1633 57.5017 4.30207C58.0567 4.44085 58.5422 4.7184 58.889 5.13473C59.3052 5.55105 59.5826 6.03677 59.7907 6.66126C59.9988 7.28575 60.0682 7.97962 60.0682 8.88167C60.0682 9.64493 59.9988 10.2694 59.7907 10.8245C59.5826 11.5184 59.2358 12.0735 58.8196 12.4898C58.4728 12.8368 58.0567 13.0449 57.5017 13.2531C57.0856 13.3919 56.5307 13.4613 55.837 13.4613H52.2995C52.3689 13.3919 52.3689 4.09391 52.3689 4.09391ZM54.2417 5.68983V11.796H55.629C56.1145 11.796 56.5307 11.796 56.7388 11.7266C57.0162 11.6572 57.2937 11.5184 57.5017 11.3102C57.7098 11.1021 57.8486 10.8245 57.9873 10.4082C58.126 9.99187 58.1954 9.43677 58.1954 8.74289C58.1954 8.04901 58.126 7.49391 57.9873 7.07758C57.8486 6.66126 57.7098 6.38371 57.4324 6.17554C57.2243 5.96738 56.9468 5.8286 56.6 5.75922C56.3226 5.68983 55.837 5.68983 55.0741 5.68983H54.2417V5.68983ZM61.7329 13.3919V4.09391H65.6865C66.6576 4.09391 67.4206 4.1633 67.8368 4.37146C68.253 4.51024 68.6691 4.85718 68.9466 5.2735C69.224 5.68983 69.3628 6.17554 69.3628 6.73064C69.3628 7.42452 69.1547 7.97962 68.7385 8.46534C68.3223 8.95105 67.6981 9.2286 66.9351 9.29799C67.3513 9.50616 67.6981 9.78371 67.9062 10.0613C68.1836 10.3388 68.5304 10.8245 68.9466 11.5878L70.0564 13.3919H67.8368L66.5189 11.3796C66.0334 10.6857 65.6865 10.2 65.5478 9.99187C65.3397 9.78371 65.201 9.64493 64.9929 9.57554C64.7848 9.50616 64.5074 9.43677 64.0218 9.43677H63.675V13.3225C63.6057 13.3919 61.7329 13.3919 61.7329 13.3919ZM63.6057 8.04901H64.9929C65.8946 8.04901 66.4495 7.97962 66.6576 7.91024C66.8657 7.84085 67.0738 7.70207 67.2125 7.49391C67.3513 7.28575 67.4206 7.07758 67.4206 6.80003C67.4206 6.45309 67.3513 6.24493 67.1432 6.03677C67.0044 5.8286 66.727 5.68983 66.4495 5.68983C66.3108 5.68983 65.8253 5.68983 65.0623 5.68983H63.6057C63.6057 5.68983 63.6057 8.04901 63.6057 8.04901ZM71.0275 13.3919V4.09391H77.8944V5.68983H72.9003V7.77146H77.5476V9.36738H72.9003V11.796H78.0331V13.3919H71.0275ZM87.952 13.3919H85.9405L85.1081 11.3102H81.4319L80.6689 13.3919H78.6574L82.2642 4.1633H84.2758L87.952 13.3919ZM84.5532 9.71432L83.2353 6.24493L81.9868 9.64493H84.5532V9.71432ZM88.9231 13.3919V4.09391H91.6976L93.3623 10.4082L95.027 4.09391H97.8015V13.3225H96.0674V6.03677L94.264 13.3225H92.4606L90.6571 6.03677V13.3225H88.9231V13.3919ZM102.657 30.2531V28.3796H104.53V30.2531H102.657ZM112.714 25.1878L110.842 25.5347C110.772 25.1878 110.634 24.9102 110.426 24.7021C110.217 24.4939 109.94 24.4245 109.593 24.4245C109.108 24.4245 108.761 24.5633 108.483 24.9102C108.206 25.2572 108.067 25.8123 108.067 26.5062C108.067 27.3388 108.206 27.9633 108.483 28.3102C108.761 28.6572 109.177 28.8653 109.593 28.8653C109.94 28.8653 110.217 28.7266 110.495 28.5878C110.703 28.3796 110.911 28.0327 110.98 27.547L112.853 27.8939C112.645 28.7266 112.298 29.4204 111.743 29.8368C111.189 30.2531 110.495 30.4613 109.524 30.4613C108.483 30.4613 107.651 30.1143 107.027 29.4898C106.402 28.8653 106.125 27.8939 106.125 26.7837C106.125 25.6041 106.402 24.7021 107.027 24.0082C107.651 23.3837 108.483 23.0368 109.524 23.0368C110.356 23.0368 111.05 23.2449 111.605 23.5919C112.09 23.8694 112.506 24.4245 112.714 25.1878ZM113.686 26.5755C113.686 25.9511 113.824 25.3266 114.171 24.7715C114.449 24.2164 114.934 23.7306 115.489 23.4531C116.044 23.1755 116.668 22.9674 117.362 22.9674C118.472 22.9674 119.304 23.3143 119.998 24.0082C120.691 24.7021 121.038 25.6041 121.038 26.6449C121.038 27.7551 120.691 28.5878 119.998 29.3511C119.304 30.0449 118.402 30.3919 117.362 30.3919C116.738 30.3919 116.113 30.2531 115.489 29.9755C114.934 29.698 114.449 29.2123 114.171 28.6572C113.824 28.1021 113.686 27.4082 113.686 26.5755ZM115.628 26.7143C115.628 27.4082 115.766 27.9633 116.113 28.3102C116.46 28.6572 116.876 28.8653 117.362 28.8653C117.847 28.8653 118.263 28.6572 118.61 28.3102C118.957 27.9633 119.096 27.4082 119.096 26.6449C119.096 25.9511 118.957 25.396 118.61 25.049C118.263 24.7021 117.847 24.4939 117.362 24.4939C116.876 24.4939 116.46 24.7021 116.113 25.049C115.766 25.4653 115.628 25.9511 115.628 26.7143ZM122.356 23.1062H124.09V24.0776C124.714 23.3143 125.477 22.9674 126.31 22.9674C126.795 22.9674 127.142 23.0368 127.489 23.2449C127.836 23.4531 128.113 23.7306 128.321 24.0776C128.668 23.7306 128.945 23.3837 129.362 23.2449C129.708 23.0368 130.125 22.9674 130.541 22.9674C131.096 22.9674 131.512 23.1062 131.859 23.3143C132.205 23.5225 132.483 23.8694 132.691 24.2164C132.83 24.4939 132.899 24.9796 132.899 25.6735V30.2531H131.026V26.1592C131.026 25.4653 130.957 24.9796 130.818 24.7715C130.679 24.4939 130.402 24.3551 129.986 24.3551C129.708 24.3551 129.5 24.4245 129.223 24.5633C129.015 24.7021 128.807 24.9796 128.737 25.2572C128.668 25.6041 128.599 26.0898 128.599 26.7143V30.1143H126.726V26.3674C126.726 25.6735 126.726 25.2572 126.656 25.049C126.587 24.8408 126.518 24.7021 126.379 24.6327C126.24 24.5633 126.032 24.4939 125.824 24.4939C125.547 24.4939 125.269 24.5633 125.061 24.7021C124.853 24.8408 124.645 25.049 124.576 25.396C124.506 25.6735 124.437 26.1592 124.437 26.8531V30.3225H122.564L122.356 23.1062Z" fill="#009EE8"/>
<path d="M106.056 9.71431L107.998 10.3388C107.72 11.449 107.235 12.2123 106.541 12.7674C105.848 13.3225 105.015 13.5306 103.905 13.5306C102.587 13.5306 101.547 13.1143 100.715 12.2123C99.8823 11.3102 99.4661 10.1306 99.4661 8.53472C99.4661 6.86941 99.8823 5.62043 100.715 4.71839C101.547 3.81635 102.657 3.33064 104.044 3.33064C105.223 3.33064 106.194 3.67758 106.957 4.37145C107.373 4.78778 107.72 5.41227 107.998 6.17553L106.056 6.66125C105.917 6.17554 105.709 5.75921 105.362 5.48166C105.015 5.20411 104.53 5.06533 104.044 5.06533C103.281 5.06533 102.726 5.34288 102.241 5.8286C101.755 6.3837 101.547 7.21635 101.547 8.39594C101.547 9.64492 101.755 10.547 102.241 11.0327C102.657 11.5878 103.281 11.7959 103.975 11.7959C104.53 11.7959 104.946 11.6572 105.362 11.3102C105.639 10.9633 105.917 10.4776 106.056 9.71431ZM109.662 13.3919V3.5388H113.824C114.865 3.5388 115.628 3.60819 116.113 3.81635C116.599 4.02451 116.946 4.30207 117.223 4.78778C117.5 5.27349 117.639 5.75921 117.639 6.31431C117.639 7.07758 117.431 7.63268 117.015 8.11839C116.599 8.60411 115.905 8.88166 115.073 9.02043C115.489 9.29798 115.836 9.57553 116.113 9.85309C116.391 10.1306 116.737 10.6857 117.223 11.449L118.402 13.3919H116.044L114.587 11.2408C114.102 10.4776 113.755 9.99186 113.547 9.7837C113.339 9.57554 113.131 9.43676 112.923 9.36737C112.714 9.29798 112.368 9.2286 111.951 9.2286H111.674V13.3225H109.662V13.3919ZM111.674 7.70207H113.131C114.102 7.70207 114.657 7.63268 114.934 7.56329C115.142 7.4939 115.35 7.35513 115.489 7.14696C115.628 6.9388 115.697 6.73064 115.697 6.3837C115.697 6.03676 115.628 5.75921 115.42 5.55105C115.211 5.34288 115.003 5.20411 114.657 5.13472C114.518 5.13472 114.032 5.13472 113.2 5.13472H111.674V7.70207ZM119.581 13.3919V3.5388H126.864V5.20411H121.593V7.35513H126.518V9.02043H121.593V11.6572H127.073V13.3225H119.581V13.3919ZM128.737 3.5388H132.344C133.176 3.5388 133.801 3.60819 134.217 3.74696C134.772 3.88574 135.257 4.23268 135.674 4.649C136.09 5.06533 136.367 5.62043 136.645 6.24492C136.853 6.86941 136.991 7.63268 136.991 8.53472C136.991 9.36737 136.922 10.0612 136.714 10.6164C136.436 11.3102 136.09 11.9347 135.674 12.351C135.327 12.698 134.841 12.9755 134.286 13.1143C133.87 13.2531 133.246 13.3225 132.552 13.3225H128.807C128.737 13.3919 128.737 3.5388 128.737 3.5388ZM130.679 5.20411V11.7266H132.136C132.691 11.7266 133.107 11.7266 133.315 11.6572C133.662 11.5878 133.87 11.449 134.148 11.2408C134.356 11.0327 134.564 10.7551 134.633 10.2694C134.772 9.85309 134.841 9.2286 134.841 8.46533C134.841 7.70207 134.772 7.14696 134.633 6.73064C134.494 6.31431 134.286 6.03676 134.078 5.75921C133.87 5.55105 133.523 5.41227 133.176 5.27349C132.899 5.20411 132.344 5.20411 131.581 5.20411H130.679ZM138.587 13.3919V3.5388H140.598V13.3919H138.587ZM144.621 13.3919V5.20411H141.708V3.5388H149.477V5.20411H146.563V13.3919H144.621ZM52.4382 30.2531V20.4H55.4208L57.1549 27.1306L58.8889 20.4H61.8715V30.2531H60.0681V22.4817L58.126 30.2531H56.1838L54.2416 22.4817V30.2531H52.4382ZM72.6921 30.2531H70.5419L69.7095 28.0327H65.7559L64.9235 30.2531H62.8426L66.6576 20.4H68.7384L72.6921 30.2531ZM69.0853 26.3674L67.698 22.7592L66.3801 26.3674H69.0853ZM73.8019 30.2531V20.4H75.8135V24.7715L79.8365 20.4H82.4723L78.796 24.2164L82.6804 30.1837H80.1139L77.4088 25.5347L75.8135 27.2V30.1837C75.8135 30.2531 73.8019 30.2531 73.8019 30.2531ZM83.6514 30.2531V20.4H90.9345V22.0653H85.663V24.2164H90.5877V25.8817H85.663V28.5184H91.1426V30.1837H83.6514V30.2531ZM92.8073 30.2531V20.4H96.9691C98.0095 20.4 98.7725 20.4694 99.2581 20.6776C99.7436 20.8857 100.09 21.1633 100.368 21.649C100.645 22.1347 100.784 22.6204 100.784 23.1755C100.784 23.9388 100.576 24.4939 100.16 24.9796C99.7436 25.4653 99.1193 25.7429 98.2176 25.8817C98.6338 26.1592 98.9806 26.4368 99.2581 26.7143C99.5355 26.9919 99.8823 27.547 100.368 28.3102L101.547 30.2531H99.1887L97.8014 28.1021C97.3159 27.3388 96.9691 26.8531 96.761 26.6449C96.5529 26.4368 96.3448 26.298 96.1367 26.2286C95.9286 26.1592 95.5818 26.0898 95.1657 26.0898H94.7495V30.1837L92.8073 30.2531ZM94.8188 24.5633H96.2755C97.2465 24.5633 97.8014 24.4939 98.0789 24.4245C98.287 24.3551 98.4951 24.2164 98.6338 24.0082C98.7725 23.8 98.8419 23.5919 98.8419 23.2449C98.8419 22.898 98.7725 22.6204 98.5644 22.4123C98.3563 22.2041 98.1483 22.0653 97.8014 21.9959C97.6627 21.9959 97.1772 21.9959 96.3448 21.9959H94.8188V24.5633Z" fill="white"/>
<path d="M170.077 13.3919V5.48166H175.418V6.38371H171.118V8.81228H174.794V9.71432H171.118V13.3225H170.077V13.3919ZM176.667 6.59187V5.48166H177.638V6.59187H176.667ZM176.667 13.3919V7.63269H177.638V13.3225H176.667V13.3919ZM179.095 13.3919V7.63269H179.996V8.46534C180.413 7.84085 181.037 7.5633 181.8 7.5633C182.147 7.5633 182.493 7.63268 182.771 7.77146C183.048 7.91024 183.256 8.04901 183.395 8.25717C183.534 8.46534 183.673 8.6735 183.673 8.95105C183.742 9.15922 183.742 9.43677 183.742 9.92248V13.4613H182.771V9.99187C182.771 9.57554 182.701 9.29799 182.632 9.08983C182.563 8.88166 182.424 8.74289 182.216 8.60411C182.008 8.46534 181.8 8.46534 181.522 8.46534C181.106 8.46534 180.759 8.60411 180.482 8.88166C180.204 9.15922 180.066 9.64493 180.066 10.4082V13.5306H179.095V13.3919ZM188.944 13.3919V12.698C188.597 13.2531 188.042 13.5306 187.349 13.5306C186.863 13.5306 186.447 13.3919 186.1 13.1837C185.753 12.9062 185.407 12.5592 185.199 12.1429C184.99 11.7266 184.852 11.1715 184.852 10.6164C184.852 10.0613 184.921 9.50615 185.129 9.08983C185.337 8.60411 185.615 8.25718 185.962 8.04901C186.308 7.77146 186.794 7.70207 187.21 7.70207C187.557 7.70207 187.834 7.77146 188.112 7.91024C188.389 8.04901 188.597 8.25717 188.736 8.46534V5.48166H189.707V13.3919H188.944ZM185.892 10.4776C185.892 11.2408 186.031 11.7266 186.378 12.1429C186.655 12.4898 187.071 12.698 187.488 12.698C187.904 12.698 188.251 12.5592 188.597 12.2123C188.875 11.8653 189.013 11.3102 189.013 10.6164C189.013 9.85309 188.875 9.29799 188.528 8.88166C188.25 8.53473 187.834 8.32656 187.418 8.32656C187.002 8.32656 186.655 8.53473 186.308 8.88166C186.031 9.2286 185.892 9.78371 185.892 10.4776ZM196.505 12.4898L196.643 13.3225C196.366 13.3919 196.158 13.3919 195.88 13.3919C195.534 13.3919 195.256 13.3225 195.048 13.2531C194.84 13.1837 194.701 12.9755 194.632 12.8368C194.563 12.698 194.493 12.2817 194.493 11.6572V8.32656H193.8V7.63269H194.493V6.24493L195.464 5.68983V7.63269H196.435V8.39595H195.464V11.7266C195.464 12.0041 195.464 12.2123 195.534 12.2817C195.534 12.3511 195.603 12.4204 195.672 12.4898C195.742 12.5592 195.88 12.5592 196.019 12.5592C196.227 12.5592 196.366 12.4898 196.505 12.4898ZM197.476 13.3919V5.48166H198.447V8.32656C198.863 7.77146 199.487 7.5633 200.181 7.5633C200.597 7.5633 200.944 7.63269 201.291 7.84085C201.568 7.97962 201.846 8.25718 201.984 8.53473C202.123 8.81228 202.192 9.2286 202.192 9.78371V13.3919H201.152V9.71432C201.152 9.2286 201.013 8.88166 200.875 8.6735C200.666 8.46534 200.389 8.32656 199.973 8.32656C199.695 8.32656 199.418 8.39595 199.14 8.53473C198.863 8.6735 198.724 8.88166 198.586 9.15922C198.447 9.43677 198.447 9.78371 198.447 10.2V13.3225H197.476V13.3919ZM207.464 11.5184L208.435 11.6572C208.296 12.2123 208.019 12.698 207.533 13.0449C207.117 13.3919 206.562 13.5306 205.869 13.5306C205.036 13.5306 204.343 13.2531 203.857 12.7674C203.372 12.2817 203.094 11.5184 203.094 10.6164C203.094 9.64493 203.372 8.88166 203.857 8.39595C204.343 7.84085 204.967 7.63269 205.799 7.63269C206.562 7.63269 207.187 7.91024 207.672 8.39595C208.158 8.88166 208.366 9.64493 208.366 10.6164C208.366 10.6857 208.366 10.7551 208.366 10.8939H204.135C204.204 11.5184 204.343 12.0041 204.689 12.3511C205.036 12.698 205.383 12.8368 205.869 12.8368C206.215 12.8368 206.493 12.7674 206.77 12.5592C207.117 12.2123 207.325 11.9347 207.464 11.5184ZM204.343 9.92248H207.533C207.464 9.43677 207.395 9.08983 207.187 8.81228C206.909 8.46534 206.493 8.25717 206.007 8.25717C205.591 8.25717 205.175 8.39595 204.898 8.6735C204.551 9.02044 204.343 9.43677 204.343 9.92248ZM213.707 13.3919H212.805V5.48166H213.776V8.32656C214.192 7.84085 214.678 7.5633 215.371 7.5633C215.718 7.5633 216.065 7.63268 216.342 7.77146C216.689 7.91024 216.897 8.1184 217.105 8.39595C217.313 8.6735 217.452 8.95105 217.591 9.29799C217.73 9.64493 217.73 10.0613 217.73 10.4776C217.73 11.449 217.452 12.2123 217.036 12.7674C216.55 13.3225 215.996 13.6 215.302 13.6C214.608 13.6 214.123 13.3225 213.707 12.7674V13.3919V13.3919ZM213.637 10.4776C213.637 11.1715 213.707 11.6572 213.915 11.9347C214.192 12.4204 214.608 12.698 215.163 12.698C215.579 12.698 215.926 12.4898 216.273 12.1429C216.55 11.796 216.759 11.2408 216.759 10.4776C216.759 9.71432 216.62 9.15922 216.342 8.81228C216.065 8.46534 215.718 8.25717 215.302 8.25717C214.886 8.25717 214.539 8.46534 214.192 8.81228C213.845 9.2286 213.637 9.78371 213.637 10.4776ZM222.793 11.5184L223.764 11.6572C223.626 12.2123 223.348 12.698 222.863 13.0449C222.446 13.3919 221.891 13.5306 221.198 13.5306C220.365 13.5306 219.672 13.2531 219.186 12.7674C218.701 12.2817 218.423 11.5184 218.423 10.6164C218.423 9.64493 218.701 8.88166 219.186 8.39595C219.672 7.84085 220.296 7.63269 221.128 7.63269C221.891 7.63269 222.516 7.91024 223.001 8.39595C223.487 8.88166 223.695 9.64493 223.695 10.6164C223.695 10.6857 223.695 10.7551 223.695 10.8939H219.464C219.533 11.5184 219.672 12.0041 220.019 12.3511C220.365 12.698 220.712 12.8368 221.198 12.8368C221.545 12.8368 221.822 12.7674 222.1 12.5592C222.446 12.2123 222.654 11.9347 222.793 11.5184ZM219.602 9.92248H222.793C222.724 9.43677 222.654 9.08983 222.446 8.81228C222.169 8.46534 221.753 8.25717 221.267 8.25717C220.851 8.25717 220.435 8.39595 220.157 8.6735C219.811 9.02044 219.672 9.43677 219.602 9.92248ZM224.666 11.6572L225.637 11.5184C225.706 11.9347 225.845 12.2123 226.053 12.4204C226.331 12.6286 226.608 12.698 227.094 12.698C227.51 12.698 227.857 12.6286 228.065 12.4204C228.273 12.2123 228.412 12.0041 228.412 11.796C228.412 11.5878 228.342 11.3796 228.134 11.3102C227.995 11.2408 227.649 11.1021 227.163 10.9633C226.469 10.7551 225.984 10.6164 225.706 10.4776C225.429 10.3388 225.221 10.1306 225.082 9.92248C224.943 9.71432 224.874 9.43677 224.874 9.15922C224.874 8.88166 224.943 8.6735 225.082 8.46534C225.221 8.25717 225.36 8.04901 225.568 7.91024C225.706 7.77146 225.914 7.70207 226.192 7.63269C226.469 7.5633 226.747 7.49391 227.024 7.49391C227.44 7.49391 227.857 7.5633 228.203 7.70207C228.55 7.84085 228.758 7.97962 228.966 8.25717C229.105 8.46534 229.244 8.74289 229.313 9.15922L228.342 9.29799C228.273 9.02044 228.203 8.74289 227.995 8.60411C227.787 8.46534 227.51 8.32656 227.094 8.32656C226.677 8.32656 226.331 8.39595 226.123 8.53473C225.914 8.6735 225.845 8.88166 225.845 9.02044C225.845 9.15922 225.914 9.2286 225.984 9.36738C226.053 9.50615 226.192 9.57554 226.331 9.64493C226.4 9.71432 226.677 9.78371 227.163 9.92248C227.857 10.1306 228.342 10.2694 228.62 10.3388C228.897 10.4776 229.105 10.6164 229.244 10.8245C229.383 11.0327 229.452 11.3102 229.452 11.6572C229.452 12.0041 229.383 12.2817 229.175 12.5592C228.966 12.8368 228.689 13.0449 228.342 13.2531C227.995 13.3919 227.579 13.4613 227.163 13.4613C226.4 13.4613 225.845 13.3225 225.498 12.9755C225.013 12.698 224.735 12.2817 224.666 11.6572ZM232.643 12.4898L232.781 13.3225C232.504 13.3919 232.296 13.3919 232.018 13.3919C231.672 13.3919 231.394 13.3225 231.186 13.2531C230.978 13.1143 230.839 12.9755 230.77 12.8368C230.701 12.6286 230.631 12.2817 230.631 11.6572V8.32656H229.938V7.63269H230.631V6.24493L231.602 5.68983V7.63269H232.573V8.39595H231.672V11.7266C231.672 12.0041 231.672 12.2123 231.741 12.2817C231.741 12.3511 231.81 12.4204 231.88 12.4898C231.949 12.5592 232.088 12.5592 232.226 12.5592C232.296 12.5592 232.435 12.4898 232.643 12.4898ZM173.684 24.8408L174.655 24.9796C174.517 25.6041 174.309 26.1592 173.892 26.5062C173.476 26.8531 172.921 27.0613 172.297 27.0613C171.534 27.0613 170.91 26.7837 170.424 26.298C169.939 25.8123 169.731 25.049 169.731 24.0776C169.731 23.4531 169.8 22.898 170.008 22.4817C170.216 21.996 170.494 21.649 170.91 21.4408C171.326 21.2327 171.812 21.0939 172.297 21.0939C172.921 21.0939 173.407 21.2327 173.823 21.5796C174.239 21.9266 174.447 22.3429 174.586 22.898L173.615 23.0368C173.546 22.6204 173.338 22.3429 173.129 22.2041C172.921 21.996 172.644 21.9266 172.297 21.9266C171.812 21.9266 171.395 22.1347 171.118 22.4817C170.84 22.8286 170.632 23.3837 170.632 24.147C170.632 24.9102 170.771 25.4653 171.049 25.8123C171.326 26.1592 171.742 26.3674 172.228 26.3674C172.575 26.3674 172.921 26.2286 173.199 26.0204C173.407 25.6735 173.615 25.3266 173.684 24.8408ZM175.418 26.9225V21.2327H176.32V22.1347C176.528 21.7184 176.736 21.4408 176.944 21.3021C177.152 21.1633 177.361 21.0939 177.569 21.0939C177.915 21.0939 178.262 21.1633 178.54 21.3715L178.193 22.2735C177.985 22.1347 177.707 22.0653 177.499 22.0653C177.291 22.0653 177.083 22.1347 176.944 22.2735C176.806 22.4123 176.667 22.5511 176.598 22.8286C176.459 23.1755 176.459 23.5225 176.459 23.9388V26.9225H175.418V26.9225ZM182.979 25.049L183.95 25.1878C183.811 25.7429 183.534 26.2286 183.048 26.5755C182.632 26.9225 182.077 27.0613 181.384 27.0613C180.551 27.0613 179.858 26.7837 179.372 26.298C178.887 25.8123 178.609 25.049 178.609 24.147C178.609 23.1755 178.887 22.4123 179.372 21.9266C179.858 21.3715 180.482 21.1633 181.314 21.1633C182.077 21.1633 182.701 21.4408 183.187 21.9266C183.673 22.4123 183.881 23.1755 183.881 24.147C183.881 24.2164 183.881 24.2857 183.881 24.4245H179.65C179.719 25.049 179.858 25.5347 180.204 25.8817C180.551 26.2286 180.898 26.3674 181.384 26.3674C181.73 26.3674 182.008 26.298 182.285 26.0898C182.632 25.7429 182.84 25.4653 182.979 25.049ZM179.858 23.5225H183.048C182.979 23.0368 182.91 22.6898 182.701 22.4123C182.424 22.0653 182.008 21.8572 181.522 21.8572C181.106 21.8572 180.69 21.996 180.413 22.2735C180.066 22.6204 179.858 22.9674 179.858 23.5225ZM188.944 26.9225V26.2286C188.597 26.7837 188.042 27.0613 187.349 27.0613C186.863 27.0613 186.447 26.9225 186.1 26.7143C185.753 26.4368 185.407 26.0898 185.199 25.6735C184.99 25.2572 184.852 24.7021 184.852 24.147C184.852 23.5919 184.921 23.0368 185.129 22.6204C185.337 22.2041 185.615 21.7878 185.962 21.5796C186.308 21.3021 186.794 21.2327 187.21 21.2327C187.557 21.2327 187.834 21.3021 188.112 21.4408C188.389 21.5796 188.597 21.7878 188.736 21.996V19.1511H189.707V27.0613L188.944 26.9225ZM185.892 24.0776C185.892 24.8408 186.031 25.3266 186.378 25.7429C186.655 26.0898 187.071 26.298 187.488 26.298C187.904 26.298 188.251 26.1592 188.597 25.8123C188.944 25.4653 189.013 24.9102 189.013 24.2164C189.013 23.4531 188.875 22.898 188.528 22.4817C188.25 22.1347 187.834 21.9266 187.418 21.9266C187.002 21.9266 186.655 22.1347 186.308 22.4817C186.031 22.7592 185.892 23.3143 185.892 24.0776ZM191.372 20.1225V19.0123H192.343V20.1225H191.372ZM191.372 26.9225V21.2327H192.343V26.9225H191.372ZM195.88 26.0204L196.019 26.8531C195.742 26.9225 195.534 26.9225 195.256 26.9225C194.909 26.9225 194.632 26.8531 194.424 26.7837C194.216 26.6449 194.077 26.5062 194.008 26.3674C193.938 26.1592 193.869 25.8123 193.869 25.1878V21.8572H193.175V21.0939H193.869V19.7062L194.84 19.1511V21.1633H195.811V21.9266H194.909V25.2572C194.909 25.5347 194.909 25.7429 194.979 25.8123C194.979 25.8817 195.048 25.9511 195.117 26.0204C195.187 26.0898 195.325 26.0898 195.464 26.0898C195.603 26.0898 195.742 26.0898 195.88 26.0204ZM203.649 24.8408L204.62 24.9796C204.481 25.6041 204.273 26.1592 203.857 26.5062C203.441 26.8531 202.886 27.0613 202.262 27.0613C201.499 27.0613 200.875 26.7837 200.389 26.298C199.903 25.8123 199.695 25.049 199.695 24.0776C199.695 23.4531 199.765 22.898 199.973 22.4817C200.181 21.996 200.458 21.649 200.875 21.4408C201.291 21.2327 201.776 21.0939 202.262 21.0939C202.886 21.0939 203.372 21.2327 203.788 21.5796C204.204 21.9266 204.412 22.3429 204.551 22.898L203.58 23.0368C203.51 22.6204 203.302 22.3429 203.094 22.2041C202.886 21.996 202.609 21.9266 202.262 21.9266C201.776 21.9266 201.36 22.1347 201.083 22.4817C200.805 22.8286 200.597 23.3837 200.597 24.147C200.597 24.9102 200.736 25.4653 201.013 25.8123C201.291 26.1592 201.707 26.3674 202.192 26.3674C202.539 26.3674 202.886 26.2286 203.163 26.0204C203.441 25.6735 203.58 25.3266 203.649 24.8408ZM209.129 26.1592C208.782 26.4368 208.435 26.7143 208.088 26.7837C207.741 26.9225 207.395 26.9919 207.048 26.9919C206.424 26.9919 205.938 26.8531 205.591 26.5062C205.244 26.2286 205.106 25.8123 205.106 25.3266C205.106 25.049 205.175 24.7715 205.314 24.5633C205.452 24.3551 205.591 24.147 205.799 24.0082C206.007 23.8694 206.215 23.7306 206.493 23.6613C206.701 23.5919 206.978 23.5919 207.325 23.5225C208.088 23.4531 208.713 23.3143 209.059 23.1755C209.059 23.0368 209.059 22.9674 209.059 22.898C209.059 22.4817 208.99 22.2041 208.782 22.0653C208.504 21.8572 208.158 21.7184 207.672 21.7184C207.187 21.7184 206.909 21.7878 206.632 21.9266C206.424 22.0653 206.285 22.3429 206.146 22.7592L205.175 22.6204C205.244 22.2041 205.383 21.8572 205.591 21.649C205.799 21.3715 206.077 21.2327 206.424 21.0939C206.77 20.9551 207.256 20.8857 207.741 20.8857C208.227 20.8857 208.643 20.9551 208.921 21.0245C209.198 21.1633 209.476 21.3021 209.614 21.4408C209.753 21.649 209.892 21.8572 209.892 22.1347C209.892 22.2735 209.961 22.6204 209.961 23.0368V24.3551C209.961 25.2572 209.961 25.8123 210.03 26.0898C210.1 26.298 210.169 26.5755 210.238 26.7837H209.198C209.267 26.7143 209.198 26.4368 209.129 26.1592ZM209.059 24.0776C208.713 24.2164 208.158 24.3551 207.464 24.4245C207.048 24.4939 206.77 24.5633 206.632 24.6327C206.493 24.7021 206.354 24.8408 206.285 24.9796C206.215 25.1184 206.146 25.2572 206.146 25.4653C206.146 25.7429 206.215 25.9511 206.424 26.0898C206.632 26.2286 206.909 26.3674 207.256 26.3674C207.603 26.3674 207.95 26.298 208.227 26.0898C208.504 25.9511 208.713 25.6735 208.851 25.396C208.99 25.1878 208.99 24.8408 208.99 24.4245L209.059 24.0776ZM211.556 26.9225V21.2327H212.458V22.1347C212.666 21.7184 212.874 21.4408 213.082 21.3021C213.29 21.1633 213.499 21.0939 213.707 21.0939C214.053 21.0939 214.331 21.1633 214.678 21.3715L214.331 22.2735C214.123 22.1347 213.845 22.0653 213.637 22.0653C213.429 22.0653 213.221 22.1347 213.082 22.2735C212.944 22.4123 212.805 22.5511 212.736 22.8286C212.597 23.1755 212.597 23.5225 212.597 23.9388V26.9225H211.556V26.9225ZM218.909 26.9225V26.2286C218.562 26.7837 218.007 27.0613 217.313 27.0613C216.828 27.0613 216.412 26.9225 216.065 26.7143C215.718 26.4368 215.371 26.0898 215.163 25.6735C214.955 25.2572 214.816 24.7021 214.816 24.147C214.816 23.5919 214.886 23.0368 215.094 22.6204C215.302 22.1347 215.579 21.7878 215.926 21.5796C216.273 21.3021 216.759 21.2327 217.175 21.2327C217.522 21.2327 217.799 21.3021 218.076 21.4408C218.354 21.5796 218.562 21.7878 218.701 21.996V19.1511H219.672V27.0613L218.909 26.9225ZM215.857 24.0776C215.857 24.8408 215.996 25.3266 216.342 25.7429C216.62 26.0898 217.036 26.298 217.452 26.298C217.868 26.298 218.215 26.1592 218.562 25.8123C218.909 25.4653 218.978 24.9102 218.978 24.2164C218.978 23.4531 218.839 22.898 218.493 22.4817C218.215 22.1347 217.799 21.9266 217.383 21.9266C216.967 21.9266 216.62 22.1347 216.273 22.4817C215.996 22.7592 215.857 23.3143 215.857 24.0776ZM224.042 24.0776C224.042 23.0368 224.319 22.2041 224.943 21.7184C225.429 21.3021 226.053 21.0939 226.747 21.0939C227.51 21.0939 228.203 21.3715 228.689 21.8572C229.175 22.3429 229.452 23.1062 229.452 24.0082C229.452 24.7715 229.313 25.3266 229.105 25.7429C228.897 26.1592 228.55 26.5062 228.134 26.7143C227.718 26.9225 227.232 27.0613 226.747 27.0613C225.914 27.0613 225.29 26.7837 224.805 26.298C224.25 25.7429 224.042 24.9796 224.042 24.0776ZM225.013 24.0776C225.013 24.8408 225.151 25.3266 225.498 25.7429C225.845 26.0898 226.192 26.298 226.677 26.298C227.163 26.298 227.579 26.0898 227.857 25.7429C228.203 25.396 228.342 24.8408 228.342 24.0776C228.342 23.3837 228.203 22.8286 227.857 22.4817C227.51 22.1347 227.163 21.9266 226.677 21.9266C226.192 21.9266 225.776 22.1347 225.498 22.4817C225.221 22.7592 225.013 23.3143 225.013 24.0776ZM230.77 26.9225V21.9266H229.938V21.1633H230.77V20.5388C230.77 20.1225 230.77 19.8449 230.839 19.7062C230.909 19.4286 231.117 19.2204 231.325 19.0817C231.533 18.9429 231.88 18.8735 232.296 18.8735C232.573 18.8735 232.851 18.8735 233.198 18.9429L233.059 19.7755C232.851 19.7755 232.643 19.7062 232.504 19.7062C232.226 19.7062 232.018 19.7755 231.88 19.9143C231.741 20.0531 231.672 20.2613 231.672 20.6082V21.1633H232.781V21.9266H231.672V26.9225H230.77V26.9225ZM233.614 26.9225V21.9266H232.781V21.1633H233.614V20.5388C233.614 20.1225 233.614 19.8449 233.683 19.7062C233.752 19.4286 233.961 19.2204 234.169 19.0817C234.377 18.9429 234.724 18.8735 235.14 18.8735C235.417 18.8735 235.695 18.8735 236.041 18.9429L235.903 19.7755C235.695 19.7755 235.487 19.7062 235.348 19.7062C235.07 19.7062 234.862 19.7755 234.724 19.9143C234.585 20.0531 234.515 20.2613 234.515 20.6082V21.1633H235.625V21.9266H234.515V26.9225H233.614V26.9225ZM240.342 25.049L241.313 25.1878C241.174 25.7429 240.897 26.2286 240.411 26.5755C239.995 26.9225 239.44 27.0613 238.747 27.0613C237.914 27.0613 237.221 26.7837 236.735 26.298C236.25 25.8123 235.972 25.049 235.972 24.147C235.972 23.1755 236.25 22.4123 236.735 21.9266C237.221 21.3715 237.845 21.1633 238.677 21.1633C239.44 21.1633 240.064 21.4408 240.55 21.9266C241.036 22.4123 241.244 23.1755 241.244 24.147C241.244 24.2164 241.244 24.2857 241.244 24.4245H237.013C237.082 25.049 237.221 25.5347 237.567 25.8817C237.914 26.2286 238.261 26.3674 238.747 26.3674C239.093 26.3674 239.371 26.298 239.648 26.0898C239.995 25.7429 240.203 25.4653 240.342 25.049ZM237.151 23.5225H240.342C240.273 23.0368 240.203 22.6898 239.995 22.4123C239.718 22.0653 239.301 21.8572 238.816 21.8572C238.4 21.8572 237.984 21.996 237.706 22.2735C237.429 22.5511 237.221 22.9674 237.151 23.5225ZM242.562 26.9225V21.2327H243.463V22.1347C243.671 21.7184 243.879 21.4408 244.088 21.3021C244.296 21.1633 244.504 21.0939 244.712 21.0939C245.059 21.0939 245.336 21.1633 245.683 21.3715L245.336 22.2735C245.128 22.1347 244.851 22.0653 244.642 22.0653C244.434 22.0653 244.226 22.1347 244.088 22.2735C243.949 22.4123 243.81 22.5511 243.741 22.8286C243.602 23.1755 243.602 23.5225 243.602 23.9388V26.9225C243.533 26.9225 242.562 26.9225 242.562 26.9225ZM245.822 25.1878L246.793 25.049C246.862 25.4653 247.001 25.7429 247.209 25.9511C247.486 26.1592 247.833 26.2286 248.249 26.2286C248.665 26.2286 249.012 26.1592 249.22 25.9511C249.428 25.7429 249.567 25.5347 249.567 25.3266C249.567 25.1184 249.498 24.9102 249.29 24.8408C249.151 24.7715 248.804 24.6327 248.319 24.4939C247.625 24.2857 247.139 24.147 246.862 24.0082C246.585 23.8694 246.376 23.6613 246.238 23.4531C246.099 23.2449 246.03 22.9674 246.03 22.6898C246.03 22.4123 246.099 22.2041 246.168 21.996C246.307 21.7878 246.446 21.5796 246.654 21.4408C246.793 21.3021 247.001 21.2327 247.278 21.1633C247.556 21.0939 247.833 21.0245 248.111 21.0245C248.527 21.0245 248.943 21.0939 249.29 21.2327C249.637 21.3715 249.845 21.5102 250.053 21.7878C250.191 21.996 250.33 22.2735 250.4 22.6898L249.428 22.8286C249.359 22.5511 249.29 22.2735 249.082 22.1347C248.874 21.996 248.596 21.8572 248.18 21.8572C247.764 21.8572 247.417 21.9266 247.209 22.0653C247.001 22.2041 246.931 22.4123 246.931 22.5511C246.931 22.6898 247.001 22.7592 247.07 22.898C247.139 22.9674 247.278 23.1062 247.417 23.1755C247.486 23.2449 247.764 23.3143 248.249 23.4531C248.943 23.6613 249.428 23.8 249.706 23.8694C249.983 24.0082 250.191 24.147 250.33 24.3551C250.469 24.5633 250.538 24.8408 250.538 25.1878C250.538 25.5347 250.469 25.8123 250.261 26.0898C250.053 26.3674 249.775 26.5755 249.428 26.7837C249.082 26.9225 248.665 26.9919 248.249 26.9919C247.486 26.9919 246.931 26.8531 246.585 26.5062C246.238 26.2286 245.96 25.8123 245.822 25.1878ZM254.423 24.0776C254.423 23.0368 254.7 22.2041 255.324 21.7184C255.81 21.3021 256.434 21.0939 257.128 21.0939C257.891 21.0939 258.584 21.3715 259.07 21.8572C259.555 22.3429 259.833 23.1062 259.833 24.0082C259.833 24.7715 259.694 25.3266 259.486 25.7429C259.278 26.1592 258.931 26.5062 258.515 26.7143C258.099 26.9225 257.613 27.0613 257.128 27.0613C256.295 27.0613 255.671 26.7837 255.186 26.298C254.7 25.7429 254.423 24.9796 254.423 24.0776ZM255.463 24.0776C255.463 24.8408 255.602 25.3266 255.949 25.7429C256.295 26.0898 256.642 26.298 257.128 26.298C257.613 26.298 258.029 26.0898 258.307 25.7429C258.654 25.396 258.792 24.8408 258.792 24.0776C258.792 23.3837 258.654 22.8286 258.307 22.4817C257.96 22.1347 257.613 21.9266 257.128 21.9266C256.642 21.9266 256.226 22.1347 255.949 22.4817C255.602 22.7592 255.463 23.3143 255.463 24.0776ZM260.943 26.9225V21.2327H261.844V22.0653C262.261 21.4408 262.885 21.1633 263.648 21.1633C263.995 21.1633 264.341 21.2327 264.619 21.3715C264.896 21.5102 265.104 21.649 265.243 21.8572C265.382 22.0653 265.521 22.2735 265.521 22.5511C265.59 22.7592 265.59 23.0368 265.59 23.5225V27.0613H264.619V23.5919C264.619 23.1755 264.55 22.898 264.48 22.6898C264.411 22.4817 264.272 22.3429 264.064 22.2041C263.856 22.0653 263.648 21.996 263.37 21.996C262.954 21.996 262.607 22.1347 262.33 22.4123C262.052 22.6898 261.914 23.1755 261.914 23.8694V26.9919H260.943V26.9225ZM267.047 26.9225V19.0123H268.018V26.9225H267.047ZM269.474 20.1225V19.0123H270.445V20.1225H269.474ZM269.474 26.9225V21.2327H270.445V26.9225H269.474ZM271.971 26.9225V21.2327H272.873V22.0653C273.289 21.4408 273.913 21.1633 274.676 21.1633C275.023 21.1633 275.37 21.2327 275.648 21.3715C275.925 21.5102 276.133 21.649 276.272 21.8572C276.411 22.0653 276.549 22.2735 276.549 22.5511C276.549 22.7592 276.619 23.0368 276.619 23.5225V27.0613H275.648V23.5919C275.648 23.1755 275.578 22.898 275.509 22.6898C275.439 22.4817 275.301 22.3429 275.093 22.2041C274.885 22.0653 274.676 21.996 274.399 21.996C273.983 21.996 273.636 22.1347 273.359 22.4123C273.081 22.6898 272.942 23.1755 272.942 23.8694V26.9919H271.971V26.9225ZM281.96 25.049L282.931 25.1878C282.792 25.7429 282.514 26.2286 282.029 26.5755C281.613 26.9225 281.058 27.0613 280.364 27.0613C279.532 27.0613 278.838 26.7837 278.353 26.298C277.867 25.8123 277.59 25.049 277.59 24.147C277.59 23.1755 277.867 22.4123 278.353 21.9266C278.838 21.3715 279.463 21.1633 280.295 21.1633C281.058 21.1633 281.682 21.4408 282.168 21.9266C282.653 22.4123 282.861 23.1755 282.861 24.147C282.861 24.2164 282.861 24.2857 282.861 24.4245H278.63C278.7 25.049 278.838 25.5347 279.185 25.8817C279.532 26.2286 279.879 26.3674 280.364 26.3674C280.711 26.3674 280.988 26.298 281.266 26.0898C281.613 25.7429 281.821 25.4653 281.96 25.049ZM278.769 23.5225H281.96C281.89 23.0368 281.821 22.6898 281.613 22.4123C281.335 22.0653 280.919 21.8572 280.434 21.8572C280.017 21.8572 279.601 21.996 279.324 22.2735C278.977 22.6204 278.838 22.9674 278.769 23.5225Z" fill="#009EE8"/>
<path fill-rule="evenodd" clip-rule="evenodd" d="M43.6985 28.2408V5.75918C43.6985 4.09388 42.45 2.77551 40.8546 2.77551H2.98257C1.38723 2.77551 0.0693359 4.09388 0.0693359 5.75918V28.2408C0.0693359 29.9061 1.38723 31.2245 2.98257 31.2245H40.8546C42.45 31.2245 43.6985 29.9061 43.6985 28.2408Z" fill="#009EE8"/>
<path fill-rule="evenodd" clip-rule="evenodd" d="M0.0693359 28.3796C0.138699 29.9755 1.45659 31.2245 2.98257 31.2245H19.2828L22.8203 27.6163C22.4735 27.8939 21.988 28.102 21.5024 28.102H20.1845H16.9245H8.11541C6.58943 28.102 5.13282 27.4776 4.09238 26.4367C2.21958 24.2857 1.2485 25.6041 0.554875 25.6041H0.277424C0.208061 25.6041 0.138699 25.6041 0.0693359 25.6041C0.0693359 25.6041 0.0693359 28.3796 0.0693359 28.3796Z" fill="#005898"/>
<path fill-rule="evenodd" clip-rule="evenodd" d="M0 11.9347V26.298C0.485539 25.8816 1.17917 25.6041 1.87279 25.6041H2.15025C2.91324 25.6041 3.60686 25.8816 4.16176 26.4367C5.20221 27.4776 6.65882 28.102 8.1848 28.102H16.9939H20.2539H21.5025C22.6816 28.102 23.6527 27.1306 23.6527 25.951C23.6527 24.8408 22.8897 23.9388 21.8493 23.8C22.8897 23.5918 23.6527 22.7592 23.6527 21.649C23.6527 20.5388 22.8203 19.6367 21.7799 19.498C22.8203 19.2898 23.6527 18.1796 23.6527 17.0694C23.6527 16.0286 22.9591 15.1959 21.988 14.9184H31.0051C32.1843 14.9184 33.1554 13.9469 33.1554 12.7673C33.1554 11.5878 32.1843 10.6163 31.0051 10.6163H20.1846H18.3118H17.6181C18.3811 10.3388 18.936 9.57551 18.936 8.67347C18.936 7.49388 17.965 6.59184 16.8551 6.59184H10.335C9.64142 6.59184 8.94779 6.86939 8.39289 7.3551L4.16176 11.5184C3.60686 12.0735 2.84387 12.351 2.08088 12.351H1.45662C0.901716 12.2816 0.416177 12.1429 0 11.9347Z" fill="white"/>
<path d="M32.323 14.4326C31.9762 14.7102 31.4907 14.9184 30.9358 14.9184H21.9186C22.8897 15.1265 23.5833 16.0286 23.5833 17.0694C23.5833 18.1796 22.751 19.2898 21.7105 19.4979C22.751 19.6367 23.5833 20.5388 23.5833 21.649C23.5833 22.6898 22.8203 23.5918 21.7799 23.8C22.0573 23.8694 22.4042 23.9388 22.6122 24.1469C22.6816 24.1469 32.323 14.4326 32.323 14.4326Z" fill="#005898"/>
<path d="M159.604 0.138792C159.604 12.351 159.604 21.7184 159.604 33.9306" stroke="#009EE8" stroke-width="0.2403" stroke-miterlimit="68.8543"/>
</svg>
