<svg width="92" height="31" viewBox="0 0 92 31" fill="none" xmlns="http://www.w3.org/2000/svg">
<path d="M0.349284 0.720978H4.20099C5.10246 0.720978 5.75807 0.802929 6.16783 0.88488C6.74148 1.04878 7.31514 1.37659 7.72489 1.86829C8.13465 2.36 8.46246 2.93366 8.70831 3.58927C8.95417 4.24488 9.03612 5.06439 9.03612 6.04781C9.03612 6.86732 8.95417 7.68683 8.70831 8.26049C8.46246 8.99805 8.0527 9.65366 7.56099 10.1454C7.23319 10.4732 6.74148 10.801 6.08587 10.9649C5.59416 11.1288 5.02051 11.2107 4.20099 11.2107H0.267334C0.349285 11.1288 0.349284 0.720978 0.349284 0.720978ZM2.48002 2.44195V9.32586H4.03709C4.61075 9.32586 5.0205 9.32586 5.26636 9.24391C5.59416 9.16195 5.92197 8.99805 6.08587 8.83415C6.33172 8.58829 6.49563 8.26049 6.65953 7.85074C6.82343 7.35903 6.90538 6.78537 6.90538 5.96586C6.90538 5.14634 6.82343 4.57269 6.65953 4.08098C6.49563 3.67122 6.33172 3.34342 6.08587 3.09756C5.84002 2.85171 5.51221 2.68781 5.10246 2.60586C4.77465 2.5239 4.20099 2.5239 3.38148 2.5239C3.38148 2.44195 2.48002 2.44195 2.48002 2.44195ZM10.839 11.1288V0.720978H15.2644C16.4117 0.720978 17.2312 0.802929 17.7229 0.966832C18.2147 1.13073 18.6244 1.45854 18.9522 1.95025C19.28 2.44195 19.4439 3.01561 19.4439 3.58927C19.4439 4.40878 19.1981 4.98244 18.7883 5.5561C18.2966 6.04781 17.641 6.37561 16.7395 6.53951C17.2312 6.78537 17.559 7.11317 17.8868 7.44098C18.2147 7.76878 18.5425 8.34244 19.1161 9.16195L20.4273 11.2107H17.8868L16.2478 8.83415C15.6742 8.01464 15.3464 7.52293 15.1005 7.27708C14.9366 7.03122 14.6908 6.94927 14.4449 6.86732C14.199 6.78537 13.8712 6.78537 13.3795 6.78537H12.9698V11.1288H10.839ZM12.9698 5.14634H14.5268C15.5103 5.14634 16.1659 5.06439 16.4117 4.98244C16.6576 4.90049 16.8215 4.73659 16.9854 4.57269C17.1493 4.32683 17.2312 4.08098 17.2312 3.75317C17.2312 3.42537 17.1493 3.09756 16.9854 2.93366C16.8215 2.68781 16.4937 2.60586 16.1659 2.5239C16.002 2.5239 15.5103 2.5239 14.6088 2.5239H12.9698C12.9698 2.44195 12.9698 5.14634 12.9698 5.14634ZM21.4108 11.1288V0.720978H29.1142V2.5239H23.5415V4.81854H28.7864V6.62147H23.5415V9.48976H29.36V11.2927C29.2781 11.1288 21.4108 11.1288 21.4108 11.1288ZM40.5054 11.1288H38.2108L37.3093 8.7522H33.1298L32.2283 11.1288H30.0156L34.0312 0.720978H36.2439L40.5054 11.1288ZM36.6537 7.03122L35.1786 3.09756L33.7854 7.03122H36.6537ZM41.5708 11.1288V0.720978H44.7668L46.6517 7.85074L48.5366 0.720978H51.7327V11.1288H49.7659V2.93366L47.7171 11.1288H45.6683L43.6195 2.93366V11.1288C43.5376 11.1288 41.5708 11.1288 41.5708 11.1288ZM57.1415 29.8137V27.6829H59.2722V29.8137H57.1415ZM68.4508 24.159L66.402 24.5688C66.32 24.159 66.1561 23.8312 65.9103 23.6673C65.6644 23.4215 65.3366 23.3395 64.9268 23.3395C64.4351 23.3395 63.9434 23.5034 63.6976 23.9132C63.3698 24.241 63.2059 24.8966 63.2059 25.7161C63.2059 26.6995 63.3698 27.3551 63.6976 27.7649C64.0254 28.1746 64.4351 28.3385 65.0088 28.3385C65.4186 28.3385 65.7464 28.2566 65.9922 28.0107C66.2381 27.7649 66.402 27.3551 66.5659 26.7815L68.6966 27.1093C68.4508 28.0927 68.041 28.8302 67.4673 29.322C66.8937 29.8137 65.9922 30.0595 65.0088 30.0595C63.8615 30.0595 62.8781 29.6498 62.2225 28.9122C61.4849 28.1746 61.1571 27.1093 61.1571 25.7981C61.1571 24.4868 61.4849 23.4215 62.2225 22.6839C62.96 21.9463 63.8615 21.5366 65.0907 21.5366C66.0742 21.5366 66.8117 21.7824 67.3854 22.1922C67.7951 22.6839 68.2049 23.3395 68.4508 24.159ZM69.5981 25.7161C69.5981 24.9785 69.762 24.3229 70.0898 23.6673C70.4176 23.0117 70.9093 22.52 71.5649 22.1922C72.2205 21.8644 72.8761 21.7005 73.6956 21.7005C74.9249 21.7005 75.9083 22.1102 76.6459 22.8478C77.3834 23.6673 77.7932 24.6507 77.7932 25.88C77.7932 27.1093 77.3834 28.0927 76.6459 28.9122C75.8264 29.7317 74.8429 30.1415 73.6956 30.1415C72.9581 30.1415 72.2205 29.9776 71.5649 29.6498C70.9093 29.322 70.4176 28.8302 70.0078 28.1746C69.762 27.4371 69.5981 26.6176 69.5981 25.7161ZM71.7288 25.7981C71.7288 26.6176 71.8927 27.1912 72.3025 27.601C72.7122 28.0107 73.122 28.2566 73.6956 28.2566C74.2693 28.2566 74.679 28.0107 75.0888 27.601C75.4986 27.1912 75.6625 26.5356 75.6625 25.7161C75.6625 24.8966 75.4986 24.3229 75.0888 23.9132C74.679 23.5034 74.2693 23.2576 73.6956 23.2576C73.122 23.2576 72.7122 23.5034 72.3025 23.9132C71.8927 24.4049 71.7288 25.0605 71.7288 25.7981ZM79.3503 21.7824H81.3171V22.8478C82.0546 22.0283 82.8742 21.6185 83.7756 21.6185C84.2673 21.6185 84.759 21.7005 85.0869 21.9463C85.4966 22.1922 85.7425 22.4381 85.9883 22.9298C86.3161 22.52 86.7259 22.1922 87.1356 21.9463C87.5454 21.7005 87.9551 21.6185 88.4468 21.6185C89.0205 21.6185 89.5122 21.7005 89.922 21.9463C90.3317 22.1922 90.6595 22.52 90.8234 23.0117C90.9873 23.3395 91.0693 23.9132 91.0693 24.6507V29.8137H88.9386V25.2244C88.9386 24.4049 88.8566 23.9132 88.6927 23.6673C88.5288 23.3395 88.201 23.1756 87.7912 23.1756C87.4634 23.1756 87.2176 23.2576 86.9717 23.4215C86.7259 23.5854 86.48 23.8312 86.3981 24.241C86.3161 24.5688 86.2342 25.1424 86.2342 25.88V29.7317H84.1034V25.3063C84.1034 24.4868 84.1034 23.9951 84.0215 23.8312C83.9395 23.5854 83.8576 23.4215 83.6937 23.3395C83.5298 23.2576 83.2839 23.1756 83.0381 23.1756C82.7103 23.1756 82.3825 23.2576 82.1366 23.4215C81.8907 23.5854 81.7269 23.8312 81.563 24.159C81.481 24.4868 81.399 25.0605 81.399 25.7981V29.7317H79.2683L79.3503 21.7824Z" fill="#009EE8"/>
</svg>
